0
SECTION
2
HEADER
9
$INSUNITS
70
4
9
$ACADVER
1
AC1014
9
$HANDSEED
5
FFFF
0
ENDSEC
0
SECTION
2
TABLES
0
TABLE
2
VPORT
5
8
100
AcDbSymbolTable
0
ENDTAB
0
TABLE
2
LTYPE
5
5
100
AcDbSymbolTable
0
LTYPE
5
14
100
AcDbSymbolTableRecord
100
AcDbLinetypeTableRecord
2
BYBLOCK
70
0
0
LTYPE
5
15
100
AcDbSymbolTableRecord
100
AcDbLinetypeTableRecord
2
BYLAYER
70
0
0
ENDTAB
0
TABLE
2
LAYER
5
2
100
AcDbSymbolTable
70
2
0
LAYER
5
50
100
AcDbSymbolTableRecord
100
AcDbLayerTableRecord
2
0
70
0
6
CONTINUOUS
0
ENDTAB
0
TABLE
2
STYLE
5
3
100
AcDbSymbolTable
70
1
0
STYLE
5
11
100
AcDbSymbolTableRecord
100
AcDbTextStyleTableRecord
2
STANDARD
70
0
0
ENDTAB
0
TABLE
2
VIEW
5
6
100
AcDbSymbolTable
70
0
0
ENDTAB
0
TABLE
2
UCS
5
7
100
AcDbSymbolTable
70
0
0
ENDTAB
0
TABLE
2
APPID
5
9
100
AcDbSymbolTable
70
2
0
APPID
5
12
100
AcDbSymbolTableRecord
100
AcDbRegAppTableRecord
2
ACAD
70
0
0
ENDTAB
0
TABLE
2
DIMSTYLE
5
A
100
AcDbSymbolTable
70
1
0
ENDTAB
0
TABLE
2
BLOCK_RECORD
5
1
100
AcDbSymbolTable
70
1
0
BLOCK_RECORD
5
1F
100
AcDbSymbolTableRecord
100
AcDbBlockTableRecord
2
*MODEL_SPACE
0
BLOCK_RECORD
5
1B
100
AcDbSymbolTableRecord
100
AcDbBlockTableRecord
2
*PAPER_SPACE
0
ENDTAB
0
ENDSEC
0
SECTION
2
BLOCKS
0
BLOCK
5
20
100
AcDbEntity
100
AcDbBlockBegin
2
*MODEL_SPACE
0
ENDBLK
5
21
100
AcDbEntity
100
AcDbBlockEnd
0
BLOCK
5
1C
100
AcDbEntity
100
AcDbBlockBegin
2
*PAPER_SPACE
0
ENDBLK
5
1D
100
AcDbEntity
100
AcDbBlockEnd
0
ENDSEC
0
SECTION
2
ENTITIES
0
CIRCLE
5
100
100
AcDbEntity
8
0
100
AcDbCircle
10
-30
20
42.999999903236187
30
0
40
44
210
0
220
-0
230
1
0
LINE
5
101
100
AcDbEntity
8
0
100
AcDbLine
10
-7.0646361489421672
20
62.167030023966667
30
0
11
-10.818602148942169
21
64.900982023966662
31
0
0
LINE
5
102
100
AcDbEntity
8
0
100
AcDbLine
10
-9.9284801489421781
20
66.12320202396667
30
0
11
-6.1745141489421762
21
63.389251023966686
31
0
0
LINE
5
103
100
AcDbEntity
8
0
100
AcDbLine
10
-10.818602148942169
20
64.900982023966662
30
0
11
-9.9284801489421781
21
66.12320202396667
31
0
0
LINE
5
104
100
AcDbEntity
8
0
100
AcDbLine
10
-6.1745141489421762
20
63.389251023966686
30
0
11
-7.0646361489421672
21
62.167030023966667
31
0
0
LINE
5
105
100
AcDbEntity
8
0
100
AcDbLine
10
-7.9501681489421649
20
71.89715502396669
30
0
11
-9.3065481489421664
21
70.034723023966663
31
0
0
LINE
5
106
100
AcDbEntity
8
0
100
AcDbLine
10
-9.3065481489421664
20
70.034723023966663
30
0
11
-10.528768148942156
21
70.924844023966671
31
0
0
LINE
5
107
100
AcDbEntity
8
0
100
AcDbLine
10
-10.528768148942156
20
70.924844023966671
30
0
11
-9.1723911489421894
21
72.787287023966655
31
0
0
LINE
5
108
100
AcDbEntity
8
0
100
AcDbLine
10
-9.1723911489421894
20
72.787287023966655
30
0
11
-7.9501681489421649
21
71.89715502396669
31
0
0
LINE
5
109
100
AcDbEntity
8
0
100
AcDbLine
10
-22.72466314894217
20
73.485122023966696
30
0
11
-22.725128148942169
21
71.97312402396669
31
0
0
LINE
5
110
100
AcDbEntity
8
0
100
AcDbLine
10
-27.368654148942166
20
73.486547023966651
30
0
11
-22.72466314894217
21
73.485122023966696
31
0
0
LINE
5
111
100
AcDbEntity
8
0
100
AcDbLine
10
-27.369119148942183
20
71.974550023966685
30
0
11
-27.368654148942166
21
73.486547023966651
31
0
0
LINE
5
112
100
AcDbEntity
8
0
100
AcDbLine
10
-22.725128148942169
20
71.97312402396669
30
0
11
-27.369119148942183
21
71.974550023966685
31
0
0
LINE
5
113
100
AcDbEntity
8
0
100
AcDbLine
10
-32.442919148942181
20
79.176107023966651
30
0
11
-32.443384148942172
21
77.664110023966657
31
0
0
LINE
5
114
100
AcDbEntity
8
0
100
AcDbLine
10
-37.122914148942172
20
79.177543023966663
30
0
11
-32.442919148942181
21
79.176107023966651
31
0
0
LINE
5
115
100
AcDbEntity
8
0
100
AcDbLine
10
-32.443384148942172
20
77.664110023966657
30
0
11
-37.123379148942171
21
77.665545023966658
31
0
0
LINE
5
116
100
AcDbEntity
8
0
100
AcDbLine
10
-37.122914148942172
20
79.177543023966663
30
0
11
-37.123379148942171
21
77.665545023966658
31
0
0
LINE
5
117
100
AcDbEntity
8
0
100
AcDbLine
10
-44.854633148942149
20
62.220193023966686
30
0
11
-47.710371148942187
21
66.15267102396669
31
0
0
LINE
5
118
100
AcDbEntity
8
0
100
AcDbLine
10
-46.486934148942169
20
67.041121023966667
30
0
11
-43.631197148942192
21
63.108643023966664
31
0
0
LINE
5
119
100
AcDbEntity
8
0
100
AcDbLine
10
-43.631197148942192
20
63.108643023966664
30
0
11
-44.854633148942149
21
62.220193023966686
31
0
0
LINE
5
120
100
AcDbEntity
8
0
100
AcDbLine
10
-47.710371148942187
20
66.15267102396669
30
0
11
-46.486934148942169
21
67.041121023966667
31
0
0
LINE
5
121
100
AcDbEntity
8
0
100
AcDbLine
10
-51.923416148942181
20
74.52739002396666
30
0
11
-58.361025148942161
21
69.852440023966665
31
0
0
LINE
5
122
100
AcDbEntity
8
0
100
AcDbLine
10
-53.361864148942182
20
76.50819602396669
30
0
11
-51.923416148942181
21
74.52739002396666
31
0
0
LINE
5
123
100
AcDbEntity
8
0
100
AcDbLine
10
-53.361864148942182
20
76.50819602396669
30
0
11
-59.799475360311092
21
71.833251293927077
31
0
0
LINE
5
124
100
AcDbEntity
8
0
100
AcDbLine
10
-58.361025148942161
20
69.852440023966665
30
0
11
-59.799475360311092
21
71.833251293927077
31
0
0
LINE
5
125
100
AcDbEntity
8
0
100
AcDbLine
10
-59.777965148942172
20
45.087360023966653
30
0
11
-61.215541148942179
21
45.55590402396669
31
0
0
LINE
5
126
100
AcDbEntity
8
0
100
AcDbLine
10
-58.350045148942172
20
49.468537023966661
30
0
11
-59.777965148942172
21
45.087360023966653
31
0
0
LINE
5
127
100
AcDbEntity
8
0
100
AcDbLine
10
-59.787610148942179
20
49.937083023966657
30
0
11
-58.350045148942172
21
49.468537023966661
31
0
0
LINE
5
128
100
AcDbEntity
8
0
100
AcDbLine
10
-61.215541148942179
20
45.55590402396669
30
0
11
-59.787610148942179
21
49.937083023966657
31
0
0
LINE
5
129
100
AcDbEntity
8
0
100
AcDbLine
10
-63.758058148942176
20
51.231137023966689
30
0
11
-65.185979148942153
21
46.849960023966673
31
0
0
LINE
5
130
100
AcDbEntity
8
0
100
AcDbLine
10
-65.195631148942169
20
51.699671023966687
30
0
11
-63.758058148942176
21
51.231137023966689
31
0
0
LINE
5
131
100
AcDbEntity
8
0
100
AcDbLine
10
-66.623552148942167
20
47.318494023966679
30
0
11
-65.195631148942169
21
51.699671023966687
31
0
0
LINE
5
132
100
AcDbEntity
8
0
100
AcDbLine
10
-65.185979148942153
20
46.849960023966673
30
0
11
-66.623552148942167
21
47.318494023966679
31
0
0
LINE
5
133
100
AcDbEntity
8
0
100
AcDbLine
10
-63.186529148942157
20
39.737475023966681
30
0
11
-65.153074148942153
21
35.882619023966669
31
0
0
LINE
5
134
100
AcDbEntity
8
0
100
AcDbLine
10
-65.153074148942153
20
35.882619023966669
30
0
11
-66.097224148942161
21
38.793316023966668
31
0
0
LINE
5
135
100
AcDbEntity
8
0
100
AcDbLine
10
-63.186529148942157
20
39.737475023966681
30
0
11
-66.097224148942161
21
38.793316023966668
31
0
0
LINE
5
136
100
AcDbEntity
8
0
100
AcDbLine
10
-56.757310148942167
20
26.684321023966682
30
0
11
-58.179095148942167
21
31.067485023966661
31
0
0
LINE
5
137
100
AcDbEntity
8
0
100
AcDbLine
10
-58.179095148942167
20
31.067485023966661
30
0
11
-56.740868148942184
21
31.534010023966665
31
0
0
LINE
5
138
100
AcDbEntity
8
0
100
AcDbLine
10
-56.740868148942184
20
31.534010023966665
30
0
11
-55.319083148942184
21
27.150845023966674
31
0
0
LINE
5
139
100
AcDbEntity
8
0
100
AcDbLine
10
-55.319083148942184
20
27.150845023966674
30
0
11
-56.757310148942167
21
26.684321023966682
31
0
0
LINE
5
140
100
AcDbEntity
8
0
100
AcDbLine
10
-48.219249148942168
20
26.170993023966673
30
0
11
-54.811806148942175
21
17.077256023966676
31
0
0
LINE
5
141
100
AcDbEntity
8
0
100
AcDbLine
10
-48.219249148942168
20
26.170993023966673
30
0
11
-50.084645884390184
21
27.523320081719881
31
0
0
LINE
5
142
100
AcDbEntity
8
0
100
AcDbLine
10
-56.677193148942173
20
18.429576023966678
30
0
11
-50.084645884390184
21
27.523320081719881
31
0
0
LINE
5
143
100
AcDbEntity
8
0
100
AcDbLine
10
-54.811806148942175
20
17.077256023966676
30
0
11
-56.677193148942173
21
18.429576023966678
31
0
0
LINE
5
144
100
AcDbEntity
8
0
100
AcDbLine
10
-46.854797148942197
20
11.308762023966672
30
0
11
-43.38947214894219
21
16.088803023966687
31
0
0
LINE
5
145
100
AcDbEntity
8
0
100
AcDbLine
10
-45.018560148942193
20
9.9775720239666654
30
0
11
-46.854797148942197
21
11.308762023966672
31
0
0
LINE
5
146
100
AcDbEntity
8
0
100
AcDbLine
10
-41.553235148942171
20
14.757613023966663
30
0
11
-45.018560148942193
21
9.9775720239666654
31
0
0
LINE
5
147
100
AcDbEntity
8
0
100
AcDbLine
10
-43.38947214894219
20
16.088803023966687
30
0
11
-41.553235148942171
21
14.757613023966663
31
0
0
LINE
5
148
100
AcDbEntity
8
0
100
AcDbLine
10
-29.163498148942182
20
12.671321023966691
30
0
11
-29.152781148942175
21
8.0633320239666872
31
0
0
LINE
5
149
100
AcDbEntity
8
0
100
AcDbLine
10
-29.152781148942175
20
8.0633320239666872
30
0
11
-30.66477214894217
21
8.0598160239666683
31
0
0
LINE
5
150
100
AcDbEntity
8
0
100
AcDbLine
10
-30.66477214894217
20
8.0598160239666683
30
0
11
-30.675489148942177
21
12.667805023966672
31
0
0
LINE
5
151
100
AcDbEntity
8
0
100
AcDbLine
10
-30.675489148942177
20
12.667805023966672
30
0
11
-29.163498148942182
21
12.671321023966691
31
0
0
LINE
5
152
100
AcDbEntity
8
0
100
AcDbLine
10
-11.093213148942169
20
18.152997023966684
30
0
11
-12.318208148942169
21
17.266691023966665
31
0
0
LINE
5
153
100
AcDbEntity
8
0
100
AcDbLine
10
-12.318208148942169
20
17.266691023966665
30
0
11
-13.668769148942168
21
19.133348023966672
31
0
0
LINE
5
154
100
AcDbEntity
8
0
100
AcDbLine
10
-13.668769148942168
20
19.133348023966672
30
0
11
-12.443774148942168
21
20.019653023966679
31
0
0
LINE
5
155
100
AcDbEntity
8
0
100
AcDbLine
10
-12.443774148942168
20
20.019653023966679
30
0
11
-11.093213148942169
21
18.152997023966684
31
0
0
LINE
5
156
100
AcDbEntity
8
0
100
AcDbLine
10
-6.680535148942166
20
15.124812023966676
30
0
11
-7.5668471489421663
21
16.349804023966676
31
0
0
LINE
5
157
100
AcDbEntity
8
0
100
AcDbLine
10
-2.9180651489421727
20
17.847033023966663
30
0
11
-6.680535148942166
21
15.124812023966676
31
0
0
LINE
5
158
100
AcDbEntity
8
0
100
AcDbLine
10
-7.5668471489421663
20
16.349804023966676
30
0
11
-3.8043681489421743
21
19.072028023966681
31
0
0
LINE
5
159
100
AcDbEntity
8
0
100
AcDbLine
10
-2.9180651489421727
20
17.847033023966663
30
0
11
-3.8043681489421743
21
19.072028023966681
31
0
0
LINE
5
160
100
AcDbEntity
8
0
100
AcDbLine
10
-2.8569971489421597
20
26.53482302396668
30
0
11
0.53880913963724575
21
25.236931295167636
31
0
0
LINE
5
161
100
AcDbEntity
8
0
100
AcDbLine
10
-0.67665514894216017
20
27.638480023966672
30
0
11
0.53880913963724586
21
25.236931295167636
31
0
0
LINE
5
162
100
AcDbEntity
8
0
100
AcDbLine
10
-2.8569971489421597
20
26.53482302396668
30
0
11
-0.67665514894216017
21
27.638480023966672
31
0
0
LINE
5
163
100
AcDbEntity
8
0
100
AcDbLine
10
4.8212998510578409
20
32.390114023966667
30
0
11
4.3502468510578218
21
30.953364023966667
31
0
0
LINE
5
164
100
AcDbEntity
8
0
100
AcDbLine
10
4.3502468510578218
20
30.953364023966667
30
0
11
2.1609148510578358
21
31.671159023966666
31
0
0
LINE
5
165
100
AcDbEntity
8
0
100
AcDbLine
10
2.1609148510578358
20
31.671159023966666
30
0
11
2.631967851057837
21
33.107908023966658
31
0
0
LINE
5
166
100
AcDbEntity
8
0
100
AcDbLine
10
2.631967851057837
20
33.107908023966658
30
0
11
4.8212998510578409
21
32.390114023966667
31
0
0
LINE
5
167
100
AcDbEntity
8
0
100
AcDbLine
10
-0.57575614894215477
20
32.568395023966673
30
0
11
-2.7650881489421586
21
33.286189023966664
31
0
0
LINE
5
168
100
AcDbEntity
8
0
100
AcDbLine
10
-0.10470514894217686
20
34.005154023966696
30
0
11
-0.57575614894215477
21
32.568395023966673
31
0
0
LINE
5
169
100
AcDbEntity
8
0
100
AcDbLine
10
-2.2940371489421629
20
34.722948023966666
30
0
11
-0.10470514894217686
21
34.005154023966696
31
0
0
LINE
5
170
100
AcDbEntity
8
0
100
AcDbLine
10
-2.7650881489421586
20
33.286189023966664
30
0
11
-2.2940371489421629
21
34.722948023966666
31
0
0
LINE
5
171
100
AcDbEntity
8
0
100
AcDbLine
10
4.9132078510578303
20
39.141487023966675
30
0
11
2.7328668510578424
21
38.037827023966685
31
0
0
LINE
5
172
100
AcDbEntity
8
0
100
AcDbLine
10
2.7328668510578424
20
38.037827023966685
30
0
11
1.6292048510578461
21
40.218177023966689
31
0
0
LINE
5
173
100
AcDbEntity
8
0
100
AcDbLine
10
4.9132078510578303
20
39.141487023966675
30
0
11
1.6292048510578461
21
40.218177023966689
31
0
0
LINE
5
174
100
AcDbEntity
8
0
100
AcDbLine
10
6.6609628510578389
20
62.369233023966672
30
0
11
-2.6038301489421656
21
54.502326023966674
31
0
0
LINE
5
175
100
AcDbEntity
8
0
100
AcDbLine
10
6.6609628510578389
20
62.369233023966672
30
0
11
-4.0290341489421699
21
58.922229023966679
31
0
0
LINE
5
176
100
AcDbEntity
8
0
100
AcDbLine
10
-2.6038301489421656
20
54.502326023966674
30
0
11
-4.0290341489421699
21
58.922229023966679
31
0
0
ENDSEC
0
SECTION
2
OBJECTS
0
DICTIONARY
5
C
100
AcDbDictionary
3
ACAD_GROUP
350
D
3
ACAD_MLINESTYLE
350
17
0
DICTIONARY
5
D
100
AcDbDictionary
0
DICTIONARY
5
1A
330
C
100
AcDbDictionary
0
DICTIONARY
5
17
100
AcDbDictionary
0
ENDSEC
0
EOF
