  0
SECTION
  2
HEADER
  9
$ACADVER
  1
AC1014
  9
$HANDSEED
  5
FFFF
  9
$MEASUREMENT
 70
     1
  0
ENDSEC
  0
SECTION
  2
TABLES
  0
TABLE
  2
VPORT
  5
8
330
0
100
AcDbSymbolTable
 70
     4
  0
VPORT
  5
2E
330
8
100
AcDbSymbolTableRecord
100
AcDbViewportTableRecord
  2
*ACTIVE
 70
     0
 10
0.0
 20
0.0
 11
1.0
 21
1.0
 12
210.0
 22
148.5
 13
0.0
 23
0.0
 14
10.0
 24
10.0
 15
10.0
 25
10.0
 16
0.0
 26
0.0
 36
1.0
 17
0.0
 27
0.0
 37
0.0
 40
341.0
 41
1.24
 42
50.0
 43
0.0
 44
0.0
 50
0.0
 51
0.0
 71
     0
 72
   100
 73
     1
 74
     3
 75
     0
 76
     0
 77
     0
 78
     0
  0
ENDTAB
  0
TABLE
  2
LTYPE
  5
5
330
0
100
AcDbSymbolTable
 70
     1
  0
LTYPE
  5
14
330
5
100
AcDbSymbolTableRecord
100
AcDbLinetypeTableRecord
  2
BYBLOCK
 70
     0
  3

 72
    65
 73
     0
 40
0.0
  0
LTYPE
  5
15
330
5
100
AcDbSymbolTableRecord
100
AcDbLinetypeTableRecord
  2
BYLAYER
 70
     0
  3

 72
    65
 73
     0
 40
0.0
  0
LTYPE
  5
16
330
5
100
AcDbSymbolTableRecord
100
AcDbLinetypeTableRecord
  2
CONTINUOUS
 70
     0
  3
Solid line
 72
    65
 73
     0
 40
0.0
  0
ENDTAB
  0
TABLE
  2
LAYER
  5
2
100
AcDbSymbolTable
 70
1
  0
LAYER
  5
50
100
AcDbSymbolTableRecord
100
AcDbLayerTableRecord
  2
0
 70
0
  6
CONTINUOUS
  0
ENDTAB
  0
TABLE
  2
STYLE
  5
3
330
0
100
AcDbSymbolTable
 70
     1
  0
STYLE
  5
11
330
3
100
AcDbSymbolTableRecord
100
AcDbTextStyleTableRecord
  2
STANDARD
 70
     0
 40
0.0
 41
1.0
 50
0.0
 71
     0
 42
2.5
  3
txt
  4

  0
ENDTAB
  0
TABLE
  2
VIEW
  5
6
330
0
100
AcDbSymbolTable
 70
     0
  0
ENDTAB
  0
TABLE
  2
UCS
  5
7
330
0
100
AcDbSymbolTable
 70
     0
  0
ENDTAB
  0
TABLE
  2
APPID
  5
9
330
0
100
AcDbSymbolTable
 70
     2
  0
APPID
  5
12
330
9
100
AcDbSymbolTableRecord
100
AcDbRegAppTableRecord
  2
ACAD
 70
     0
  0
ENDTAB
  0
TABLE
  2
DIMSTYLE
  5
A
330
0
100
AcDbSymbolTable
 70
     1
  0
DIMSTYLE
105
27
330
A
100
AcDbSymbolTableRecord
100
AcDbDimStyleTableRecord
  2
ISO-25
 70
     0
  3

  4

  5

  6

  7

 40
1.0
 41
2.5
 42
0.625
 43
3.75
 44
1.25
 45
0.0
 46
0.0
 47
0.0
 48
0.0
140
2.5
141
2.5
142
0.0
143
0.03937007874016
144
1.0
145
0.0
146
1.0
147
0.625
 71
     0
 72
     0
 73
     0
 74
     0
 75
     0
 76
     0
 77
     1
 78
     8
170
     0
171
     3
172
     1
173
     0
174
     0
175
     0
176
     0
177
     0
178
     0
270
     2
271
     2
272
     2
273
     2
274
     3
340
11
275
     0
280
     0
281
     0
282
     0
283
     0
284
     8
285
     0
286
     0
287
     3
288
     0
  0
ENDTAB
  0
TABLE
  2
BLOCK_RECORD
  5
1
330
0
100
AcDbSymbolTable
 70
     1
  0
BLOCK_RECORD
  5
1F
330
1
100
AcDbSymbolTableRecord
100
AcDbBlockTableRecord
  2
*MODEL_SPACE
  0
BLOCK_RECORD
  5
1B
330
1
100
AcDbSymbolTableRecord
100
AcDbBlockTableRecord
  2
*PAPER_SPACE
  0
ENDTAB
  0
ENDSEC
  0
SECTION
  2
BLOCKS
  0
BLOCK
  5
20
330
1F
100
AcDbEntity
  8
0
100
AcDbBlockBegin
  2
*MODEL_SPACE
 70
     0
 10
0.0
 20
0.0
 30
0.0
  3
*MODEL_SPACE
  1

  0
ENDBLK
  5
21
330
1F
100
AcDbEntity
  8
0
100
AcDbBlockEnd
  0
BLOCK
  5
1C
330
1B
100
AcDbEntity
 67
     1
  8
0
100
AcDbBlockBegin
  2
*PAPER_SPACE
  1

  0
ENDBLK
  5
1D
330
1B
100
AcDbEntity
 67
     1
  8
0
100
AcDbBlockEnd
  0
ENDSEC
  0
SECTION
  2
ENTITIES
  0
SPLINE
  5
100
100
AcDbEntity
  8
0
 62
7
100
AcDbSpline
 70
8
 71
3
 72
8
 73
4
 74
0
 40
0
 40
0
 40
0
 40
0
 40
1
 40
1
 40
1
 40
1
 10
108.510659
 20
168.193862
 30
0.0
 10
107.919921
 20
168.180236
 30
0.0
 10
107.334729
 20
168.000854
 30
0.0
 10
106.847033
 20
167.665158
 30
0.0
  0
SPLINE
  5
101
100
AcDbEntity
  8
0
 62
7
100
AcDbSpline
 70
8
 71
3
 72
8
 73
4
 74
0
 40
0
 40
0
 40
0
 40
0
 40
1
 40
1
 40
1
 40
1
 10
106.847033
 20
167.665158
 30
0.0
 10
106.322865
 20
167.309016
 30
0.0
 10
105.917446
 20
166.783564
 30
0.0
 10
105.704174
 20
166.186302
 30
0.0
  0
SPLINE
  5
102
100
AcDbEntity
  8
0
 62
7
100
AcDbSpline
 70
8
 71
3
 72
8
 73
4
 74
0
 40
0
 40
0
 40
0
 40
0
 40
1
 40
1
 40
1
 40
1
 10
105.704174
 20
166.186302
 30
0.0
 10
105.485191
 20
165.581489
 30
0.0
 10
105.471333
 20
164.908219
 30
0.0
 10
105.654594
 20
164.291759
 30
0.0
  0
SPLINE
  5
103
100
AcDbEntity
  8
0
 62
7
100
AcDbSpline
 70
8
 71
3
 72
8
 73
4
 74
0
 40
0
 40
0
 40
0
 40
0
 40
1
 40
1
 40
1
 40
1
 10
105.654594
 20
164.291759
 30
0.0
 10
105.840244
 20
163.685186
 30
0.0
 10
106.217005
 20
163.140642
 30
0.0
 10
106.722327
 20
162.755866
 30
0.0
  0
SPLINE
  5
104
100
AcDbEntity
  8
0
 62
7
100
AcDbSpline
 70
8
 71
3
 72
8
 73
4
 74
0
 40
0
 40
0
 40
0
 40
0
 40
1
 40
1
 40
1
 40
1
 10
106.722327
 20
162.755866
 30
0.0
 10
107.228435
 20
162.373202
 30
0.0
 10
107.853881
 20
162.154979
 30
0.0
 10
108.488764
 20
162.140642
 30
0.0
  0
SPLINE
  5
105
100
AcDbEntity
  8
0
 62
7
100
AcDbSpline
 70
8
 71
3
 72
8
 73
4
 74
0
 40
0
 40
0
 40
0
 40
0
 40
1
 40
1
 40
1
 40
1
 10
108.488764
 20
162.140642
 30
0.0
 10
109.123396
 20
162.128497
 30
0.0
 10
109.757505
 20
162.320352
 30
0.0
 10
110.280035
 20
162.681476
 30
0.0
  0
SPLINE
  5
106
100
AcDbEntity
  8
0
 62
7
100
AcDbSpline
 70
8
 71
3
 72
8
 73
4
 74
0
 40
0
 40
0
 40
0
 40
0
 40
1
 40
1
 40
1
 40
1
 10
110.280035
 20
162.681476
 30
0.0
 10
110.799378
 20
163.045455
 30
0.0
 10
111.200732
 20
163.572114
 30
0.0
 10
111.410057
 20
164.171625
 30
0.0
  0
SPLINE
  5
107
100
AcDbEntity
  8
0
 62
7
100
AcDbSpline
 70
8
 71
3
 72
8
 73
4
 74
0
 40
0
 40
0
 40
0
 40
0
 40
1
 40
1
 40
1
 40
1
 10
111.410057
 20
164.171625
 30
0.0
 10
111.617615
 20
164.770914
 30
0.0
 10
111.630873
 20
165.432888
 30
0.0
 10
111.449406
 20
166.041038
 30
0.0
  0
SPLINE
  5
108
100
AcDbEntity
  8
0
 62
7
100
AcDbSpline
 70
8
 71
3
 72
8
 73
4
 74
0
 40
0
 40
0
 40
0
 40
0
 40
1
 40
1
 40
1
 40
1
 10
111.449406
 20
166.041038
 30
0.0
 10
111.264624
 20
166.648119
 30
0.0
 10
110.886606
 20
167.191684
 30
0.0
 10
110.381879
 20
167.577171
 30
0.0
  0
SPLINE
  5
109
100
AcDbEntity
  8
0
 62
7
100
AcDbSpline
 70
8
 71
3
 72
8
 73
4
 74
0
 40
0
 40
0
 40
0
 40
0
 40
1
 40
1
 40
1
 40
1
 10
110.381879
 20
167.577171
 30
0.0
 10
109.875623
 20
167.959542
 30
0.0
 10
109.250082
 20
168.177704
 30
0.0
 10
108.615235
 20
168.192155
 30
0.0
  0
SPLINE
  5
10a
100
AcDbEntity
  8
0
 62
7
100
AcDbSpline
 70
8
 71
3
 72
8
 73
4
 74
0
 40
0
 40
0
 40
0
 40
0
 40
1
 40
1
 40
1
 40
1
 10
108.615235
 20
168.192155
 30
0.0
 10
108.580281
 20
168.195198
 30
0.0
 10
108.545629
 20
168.199088
 30
0.0
 10
108.510659
 20
168.193743
 30
0.0
  0
SPLINE
  5
10b
100
AcDbEntity
  8
0
 62
7
100
AcDbSpline
 70
8
 71
3
 72
8
 73
4
 74
0
 40
0
 40
0
 40
0
 40
0
 40
1
 40
1
 40
1
 40
1
 10
108.533913
 20
178.193765
 30
0.0
 10
107.943175
 20
178.180139
 30
0.0
 10
107.357983
 20
178.000757
 30
0.0
 10
106.870287
 20
177.665062
 30
0.0
  0
SPLINE
  5
10c
100
AcDbEntity
  8
0
 62
7
100
AcDbSpline
 70
8
 71
3
 72
8
 73
4
 74
0
 40
0
 40
0
 40
0
 40
0
 40
1
 40
1
 40
1
 40
1
 10
106.870287
 20
177.665062
 30
0.0
 10
106.337904
 20
177.304472
 30
0.0
 10
105.931771
 20
176.768241
 30
0.0
 10
105.717125
 20
176.162353
 30
0.0
  0
SPLINE
  5
10d
100
AcDbEntity
  8
0
 62
7
100
AcDbSpline
 70
8
 71
3
 72
8
 73
4
 74
0
 40
0
 40
0
 40
0
 40
0
 40
1
 40
1
 40
1
 40
1
 10
105.717125
 20
176.162353
 30
0.0
 10
105.510176
 20
175.562463
 30
0.0
 10
105.496026
 20
174.900272
 30
0.0
 10
105.677848
 20
174.291662
 30
0.0
  0
SPLINE
  5
10e
100
AcDbEntity
  8
0
 62
7
100
AcDbSpline
 70
8
 71
3
 72
8
 73
4
 74
0
 40
0
 40
0
 40
0
 40
0
 40
1
 40
1
 40
1
 40
1
 10
105.677848
 20
174.291662
 30
0.0
 10
105.863501
 20
173.685092
 30
0.0
 10
106.240259
 20
173.140545
 30
0.0
 10
106.745581
 20
172.755770
 30
0.0
  0
SPLINE
  5
10f
100
AcDbEntity
  8
0
 62
7
100
AcDbSpline
 70
8
 71
3
 72
8
 73
4
 74
0
 40
0
 40
0
 40
0
 40
0
 40
1
 40
1
 40
1
 40
1
 10
106.745581
 20
172.755770
 30
0.0
 10
107.251867
 20
172.373560
 30
0.0
 10
107.877442
 20
172.155737
 30
0.0
 10
108.512019
 20
172.140545
 30
0.0
  0
SPLINE
  5
110
100
AcDbEntity
  8
0
 62
7
100
AcDbSpline
 70
8
 71
3
 72
8
 73
4
 74
0
 40
0
 40
0
 40
0
 40
0
 40
1
 40
1
 40
1
 40
1
 10
108.512019
 20
172.140545
 30
0.0
 10
109.146473
 20
172.128850
 30
0.0
 10
109.780510
 20
172.320922
 30
0.0
 10
110.303290
 20
172.681382
 30
0.0
  0
SPLINE
  5
111
100
AcDbEntity
  8
0
 62
7
100
AcDbSpline
 70
8
 71
3
 72
8
 73
4
 74
0
 40
0
 40
0
 40
0
 40
0
 40
1
 40
1
 40
1
 40
1
 10
110.303290
 20
172.681382
 30
0.0
 10
110.822632
 20
173.045359
 30
0.0
 10
111.223986
 20
173.572017
 30
0.0
 10
111.433312
 20
174.171528
 30
0.0
  0
SPLINE
  5
112
100
AcDbEntity
  8
0
 62
7
100
AcDbSpline
 70
8
 71
3
 72
8
 73
4
 74
0
 40
0
 40
0
 40
0
 40
0
 40
1
 40
1
 40
1
 40
1
 10
111.433312
 20
174.171528
 30
0.0
 10
111.640885
 20
174.770828
 30
0.0
 10
111.654048
 20
175.432770
 30
0.0
 10
111.472771
 20
176.040970
 30
0.0
  0
SPLINE
  5
113
100
AcDbEntity
  8
0
 62
7
100
AcDbSpline
 70
8
 71
3
 72
8
 73
4
 74
0
 40
0
 40
0
 40
0
 40
0
 40
1
 40
1
 40
1
 40
1
 10
111.472771
 20
176.040970
 30
0.0
 10
111.287889
 20
176.648001
 30
0.0
 10
110.909841
 20
177.191577
 30
0.0
 10
110.405133
 20
177.577074
 30
0.0
  0
SPLINE
  5
114
100
AcDbEntity
  8
0
 62
7
100
AcDbSpline
 70
8
 71
3
 72
8
 73
4
 74
0
 40
0
 40
0
 40
0
 40
0
 40
1
 40
1
 40
1
 40
1
 10
110.405133
 20
177.577074
 30
0.0
 10
109.898877
 20
177.959445
 30
0.0
 10
109.273336
 20
178.177610
 30
0.0
 10
108.638489
 20
178.192059
 30
0.0
  0
SPLINE
  5
115
100
AcDbEntity
  8
0
 62
7
100
AcDbSpline
 70
8
 71
3
 72
8
 73
4
 74
0
 40
0
 40
0
 40
0
 40
0
 40
1
 40
1
 40
1
 40
1
 10
108.638489
 20
178.192059
 30
0.0
 10
108.603535
 20
178.195101
 30
0.0
 10
108.568886
 20
178.198991
 30
0.0
 10
108.533913
 20
178.193646
 30
0.0
  0
LWPOLYLINE
  5
116
100
AcDbEntity
  8
0
 62
7
100
AcDbPolyline
 90
2
 70
0
 10
108.510659
 20
168.193743
 30
0.0
 10
108.510659
 20
168.193862
 30
0.0
  0
SPLINE
  5
117
100
AcDbEntity
  8
0
 62
7
100
AcDbSpline
 70
8
 71
3
 72
8
 73
4
 74
0
 40
0
 40
0
 40
0
 40
0
 40
1
 40
1
 40
1
 40
1
 10
188.575355
 20
222.166325
 30
0.0
 10
188.575355
 20
222.961975
 30
0.0
 10
188.259285
 20
223.725038
 30
0.0
 10
187.696675
 20
224.287647
 30
0.0
  0
SPLINE
  5
118
100
AcDbEntity
  8
0
 62
7
100
AcDbSpline
 70
8
 71
3
 72
8
 73
4
 74
0
 40
0
 40
0
 40
0
 40
0
 40
1
 40
1
 40
1
 40
1
 10
187.696675
 20
224.287647
 30
0.0
 10
187.134066
 20
224.850256
 30
0.0
 10
186.371004
 20
225.166327
 30
0.0
 10
185.575354
 20
225.166326
 30
0.0
  0
LWPOLYLINE
  5
119
100
AcDbEntity
  8
0
 62
7
100
AcDbPolyline
 90
2
 70
0
 10
108.533913
 20
178.193646
 30
0.0
 10
108.533913
 20
178.193765
 30
0.0
  0
SPLINE
  5
11a
100
AcDbEntity
  8
0
 62
7
100
AcDbSpline
 70
8
 71
3
 72
8
 73
4
 74
0
 40
0
 40
0
 40
0
 40
0
 40
1
 40
1
 40
1
 40
1
 10
31.575398
 20
225.166326
 30
0.0
 10
30.779748
 20
225.166326
 30
0.0
 10
30.016687
 20
224.850255
 30
0.0
 10
29.454078
 20
224.287646
 30
0.0
  0
SPLINE
  5
11b
100
AcDbEntity
  8
0
 62
7
100
AcDbSpline
 70
8
 71
3
 72
8
 73
4
 74
0
 40
0
 40
0
 40
0
 40
0
 40
1
 40
1
 40
1
 40
1
 10
29.454078
 20
224.287646
 30
0.0
 10
28.891469
 20
223.725037
 30
0.0
 10
28.575399
 20
222.961975
 30
0.0
 10
28.575399
 20
222.166325
 30
0.0
  0
LWPOLYLINE
  5
11c
100
AcDbEntity
  8
0
 62
7
100
AcDbPolyline
 90
2
 70
0
 10
185.575354
 20
225.166326
 30
0.0
 10
31.575398
 20
225.166326
 30
0.0
  0
SPLINE
  5
11d
100
AcDbEntity
  8
0
 62
7
100
AcDbSpline
 70
8
 71
3
 72
8
 73
4
 74
0
 40
0
 40
0
 40
0
 40
0
 40
1
 40
1
 40
1
 40
1
 10
28.575399
 20
118.166356
 30
0.0
 10
28.575399
 20
117.370707
 30
0.0
 10
28.891469
 20
116.607645
 30
0.0
 10
29.454078
 20
116.045035
 30
0.0
  0
SPLINE
  5
11e
100
AcDbEntity
  8
0
 62
7
100
AcDbSpline
 70
8
 71
3
 72
8
 73
4
 74
0
 40
0
 40
0
 40
0
 40
0
 40
1
 40
1
 40
1
 40
1
 10
29.454078
 20
116.045035
 30
0.0
 10
30.016687
 20
115.482426
 30
0.0
 10
30.779748
 20
115.166355
 30
0.0
 10
31.575398
 20
115.166355
 30
0.0
  0
LWPOLYLINE
  5
11f
100
AcDbEntity
  8
0
 62
7
100
AcDbPolyline
 90
2
 70
0
 10
28.575399
 20
222.166325
 30
0.0
 10
28.575399
 20
118.166356
 30
0.0
  0
SPLINE
  5
120
100
AcDbEntity
  8
0
 62
7
100
AcDbSpline
 70
8
 71
3
 72
8
 73
4
 74
0
 40
0
 40
0
 40
0
 40
0
 40
1
 40
1
 40
1
 40
1
 10
185.575354
 20
115.166355
 30
0.0
 10
186.371004
 20
115.166355
 30
0.0
 10
187.134066
 20
115.482425
 30
0.0
 10
187.696675
 20
116.045035
 30
0.0
  0
SPLINE
  5
121
100
AcDbEntity
  8
0
 62
7
100
AcDbSpline
 70
8
 71
3
 72
8
 73
4
 74
0
 40
0
 40
0
 40
0
 40
0
 40
1
 40
1
 40
1
 40
1
 10
187.696675
 20
116.045035
 30
0.0
 10
188.259285
 20
116.607644
 30
0.0
 10
188.575355
 20
117.370706
 30
0.0
 10
188.575355
 20
118.166356
 30
0.0
  0
LWPOLYLINE
  5
122
100
AcDbEntity
  8
0
 62
7
100
AcDbPolyline
 90
2
 70
0
 10
31.575398
 20
115.166355
 30
0.0
 10
185.575354
 20
115.166355
 30
0.0
  0
LWPOLYLINE
  5
123
100
AcDbEntity
  8
0
 62
7
100
AcDbPolyline
 90
2
 70
0
 10
188.575355
 20
118.166356
 30
0.0
 10
188.575355
 20
222.166325
 30
0.0
  0
LWPOLYLINE
  5
124
100
AcDbEntity
  8
0
 62
7
100
AcDbPolyline
 90
6
 70
1
 10
127.726018
 20
191.891116
 30
0.0
 10
127.726018
 20
168.642413
 30
0.0
 10
149.252864
 20
168.642413
 30
0.0
 10
149.252864
 20
192.420283
 30
0.0
 10
127.726018
 20
192.420283
 30
0.0
 10
127.726018
 20
191.891116
 30
0.0
  0
LWPOLYLINE
  5
125
100
AcDbEntity
  8
0
 62
7
100
AcDbPolyline
 90
6
 70
1
 10
157.708675
 20
171.076372
 30
0.0
 10
157.708675
 20
147.877794
 30
0.0
 10
179.289781
 20
147.877794
 30
0.0
 10
179.289781
 20
171.605539
 30
0.0
 10
157.708675
 20
171.605539
 30
0.0
 10
157.708675
 20
171.076372
 30
0.0
  0
LWPOLYLINE
  5
126
100
AcDbEntity
  8
0
 62
7
100
AcDbPolyline
 90
6
 70
1
 10
67.708510
 20
171.076372
 30
0.0
 10
67.708510
 20
147.877794
 30
0.0
 10
89.290132
 20
147.877794
 30
0.0
 10
89.290132
 20
171.605539
 30
0.0
 10
67.708510
 20
171.605539
 30
0.0
 10
67.708510
 20
171.076372
 30
0.0
  0
LWPOLYLINE
  5
127
100
AcDbEntity
  8
0
 62
7
100
AcDbPolyline
 90
6
 70
1
 10
37.725853
 20
191.891116
 30
0.0
 10
37.725853
 20
168.642413
 30
0.0
 10
59.253214
 20
168.642413
 30
0.0
 10
59.253214
 20
192.420283
 30
0.0
 10
37.725853
 20
192.420283
 30
0.0
 10
37.725853
 20
191.891116
 30
0.0
  0
ENDSEC
  0
SECTION
  2
OBJECTS
  0
DICTIONARY
  5
C
330
0
100
AcDbDictionary
  3
ACAD_GROUP
350
D
  3
ACAD_MLINESTYLE
350
17
  0
DICTIONARY
  5
D
330
C
100
AcDbDictionary
  0
DICTIONARY
  5
1A
330
C
100
AcDbDictionary
  0
DICTIONARY
  5
17
330
C
100
AcDbDictionary
  3
STANDARD
350
18
  0
DICTIONARY
  5
19
330
C
100
AcDbDictionary
  0
ENDSEC
  0
EOF
