<?xml version="1.0" encoding="UTF-8" standalone="no"?>
<svg
   viewBox="0 0 793.7007874015749 1122.5196850393702"
   width="793.7007874015749"
   height="1122.5196850393702"
   version="1.1"
   id="svg1169"
   sodipodi:docname="bezel.svg"
   inkscape:version="1.2.1 (9c6d41e410, 2022-07-14)"
   xmlns:inkscape="http://www.inkscape.org/namespaces/inkscape"
   xmlns:sodipodi="http://sodipodi.sourceforge.net/DTD/sodipodi-0.dtd"
   xmlns="http://www.w3.org/2000/svg"
   xmlns:svg="http://www.w3.org/2000/svg">
  <sodipodi:namedview
     id="namedview1171"
     pagecolor="#ffffff"
     bordercolor="#000000"
     borderopacity="0.25"
     inkscape:showpageshadow="2"
     inkscape:pageopacity="0.0"
     inkscape:pagecheckerboard="0"
     inkscape:deskcolor="#d1d1d1"
     showgrid="false"
     inkscape:zoom="2.5041624"
     inkscape:cx="401.13213"
     inkscape:cy="452.84603"
     inkscape:window-width="2560"
     inkscape:window-height="1494"
     inkscape:window-x="-11"
     inkscape:window-y="-11"
     inkscape:window-maximized="1"
     inkscape:current-layer="g1167" />
  <desc
     id="desc1049">bezel.dxf - scale = 1.000000, origin = (0.000000, 0.000000), method = manual</desc>
  <defs
     id="defs1063">
    <marker
       id="DistanceX"
       orient="auto"
       refX="0.0"
       refY="0.0"
       style="overflow:visible">
      <path
         d="M 3,-3 L -3,3 M 0,-5 L  0,5"
         style="stroke:#000000; stroke-width:0.5"
         id="path1051" />
    </marker>
    <pattern
       id="Hatch"
       patternUnits="userSpaceOnUse"
       width="8"
       height="8"
       x="0"
       y="0">
      <path
         d="M8 4 l-4,4"
         stroke="#000000"
         stroke-width="0.25"
         linecap="square"
         id="path1054" />
      <path
         d="M6 2 l-4,4"
         stroke="#000000"
         stroke-width="0.25"
         linecap="square"
         id="path1056" />
      <path
         d="M4 0 l-4,4"
         stroke="#000000"
         stroke-width="0.25"
         linecap="square"
         id="path1058" />
    </pattern>
    <symbol
       id="*MODEL_SPACE" />
    <symbol
       id="*PAPER_SPACE" />
  </defs>
  <g
     inkscape:groupmode="layer"
     inkscape:label="0"
     id="g1167">
    <path
       id="path1161"
       style="fill:none;stroke:#000000"
       d="m 410.11914,486.82617 c -2.23271,0.0515 -4.44446,0.72948 -6.28772,1.99825 -1.98111,1.34605 -3.5134,3.33201 -4.31947,5.58938 -0.82765,2.28591 -0.88003,4.83055 -0.18739,7.16048 0.70167,2.29256 2.12565,4.35068 4.03553,5.80495 1.91285,1.44629 4.27674,2.27107 6.6763,2.32526 2.39861,0.0459 4.79524,-0.67922 6.77016,-2.0441 1.96287,-1.37567 3.4798,-3.36619 4.27095,-5.63206 0.78447,-2.26503 0.83458,-4.76698 0.14872,-7.0655 -0.69839,-2.29448 -2.12712,-4.3489 -4.03475,-5.80586 -1.91341,-1.44518 -4.27766,-2.26973 -6.67708,-2.32435 -0.13211,-0.0115 -0.26308,-0.0262 -0.39525,-0.006 z" />
    <path
       id="path1163"
       style="fill:none;stroke:#000000"
       d="m 410.20703,449.03125 c -2.23271,0.0515 -4.44446,0.72948 -6.28772,1.99825 -2.01216,1.36286 -3.54715,3.38956 -4.35841,5.67953 -0.78217,2.2673 -0.83565,4.77007 -0.14845,7.07033 0.70168,2.29255 2.12565,4.35068 4.03553,5.80495 1.91352,1.44457 4.2779,2.26784 6.6763,2.32526 2.39794,0.0442 4.7943,-0.68174 6.77016,-2.04411 1.96287,-1.37566 3.4798,-3.36618 4.27095,-5.63205 0.78453,-2.26507 0.83428,-4.7669 0.14914,-7.06561 -0.69877,-2.29429 -2.12761,-4.34875 -4.03517,-5.80575 -1.91341,-1.44518 -4.27766,-2.26974 -6.67708,-2.32435 -0.13211,-0.0115 -0.26307,-0.0262 -0.39525,-0.006 z" />
    <path
       d="M 712.72595,282.8357 A 11.338583,11.338583 0 0 0 701.38736,271.49711 H 119.34012 a 11.338583,11.338583 0 0 0 -11.33858,11.33859 v 393.07086 a 11.338583,11.338583 0 0 0 11.33858,11.33859 h 582.04724 a 11.338583,11.338583 0 0 0 11.33859,-11.33859 z"
       style="fill:none;stroke:#000000"
       id="path1165" />
    <path
       id="rect3249"
       style="fill:none;stroke:#000000"
       d="m 482.74414,397.26172 c 0,29.28971 0,58.57943 0,87.86914 27.12044,0 54.24089,0 81.36133,0 0,-29.95638 0,-59.91276 0,-89.86914 -27.12044,0 -54.24089,0 -81.36133,0 0,0.66667 0,1.33333 0,2 z" />
    <path
       id="rect3252"
       style="fill:none;stroke:#000000"
       d="m 596.06445,475.93164 c 0,29.22656 0,58.45313 0,87.67969 27.18881,0 54.37761,0 81.56641,0 0,-29.89323 0,-59.78646 0,-89.67969 -27.1888,0 -54.3776,0 -81.56641,0 0,0.66667 0,1.33333 0,2 z" />
    <path
       id="rect3255"
       style="fill:none;stroke:#000000"
       d="m 255.90625,475.93164 c 0,29.22656 0,58.45313 0,87.67969 27.18945,0 54.37891,0 81.56836,0 0,-29.89323 0,-59.78646 0,-89.67969 -27.18945,0 -54.37891,0 -81.56836,0 0,0.66667 0,1.33333 0,2 z" />
    <path
       id="rect3258"
       style="fill:none;stroke:#000000"
       d="m 142.58594,397.26172 c 0,29.28971 0,58.57943 0,87.86914 27.12109,0 54.24219,0 81.36328,0 0,-29.95638 0,-59.91276 0,-89.86914 -27.1211,0 -54.24219,0 -81.36328,0 0,0.66667 0,1.33333 0,2 z" />
  </g>
</svg>
