0
SECTION
2
HEADER
9
$INSUNITS
70
4
9
$ACADVER
1
AC1014
9
$HANDSEED
5
FFFF
0
ENDSEC
0
SECTION
2
TABLES
0
TABLE
2
VPORT
5
8
100
AcDbSymbolTable
0
ENDTAB
0
TABLE
2
LTYPE
5
5
100
AcDbSymbolTable
0
LTYPE
5
14
100
AcDbSymbolTableRecord
100
AcDbLinetypeTableRecord
2
BYBLOCK
70
0
0
LTYPE
5
15
100
AcDbSymbolTableRecord
100
AcDbLinetypeTableRecord
2
BYLAYER
70
0
0
ENDTAB
0
TABLE
2
LAYER
5
2
100
AcDbSymbolTable
70
2
0
LAYER
5
50
100
AcDbSymbolTableRecord
100
AcDbLayerTableRecord
2
0
70
0
6
CONTINUOUS
0
ENDTAB
0
TABLE
2
STYLE
5
3
100
AcDbSymbolTable
70
1
0
STYLE
5
11
100
AcDbSymbolTableRecord
100
AcDbTextStyleTableRecord
2
STANDARD
70
0
0
ENDTAB
0
TABLE
2
VIEW
5
6
100
AcDbSymbolTable
70
0
0
ENDTAB
0
TABLE
2
UCS
5
7
100
AcDbSymbolTable
70
0
0
ENDTAB
0
TABLE
2
APPID
5
9
100
AcDbSymbolTable
70
2
0
APPID
5
12
100
AcDbSymbolTableRecord
100
AcDbRegAppTableRecord
2
ACAD
70
0
0
ENDTAB
0
TABLE
2
DIMSTYLE
5
A
100
AcDbSymbolTable
70
1
0
ENDTAB
0
TABLE
2
BLOCK_RECORD
5
1
100
AcDbSymbolTable
70
1
0
BLOCK_RECORD
5
1F
100
AcDbSymbolTableRecord
100
AcDbBlockTableRecord
2
*MODEL_SPACE
0
BLOCK_RECORD
5
1B
100
AcDbSymbolTableRecord
100
AcDbBlockTableRecord
2
*PAPER_SPACE
0
ENDTAB
0
ENDSEC
0
SECTION
2
BLOCKS
0
BLOCK
5
20
100
AcDbEntity
100
AcDbBlockBegin
2
*MODEL_SPACE
0
ENDBLK
5
21
100
AcDbEntity
100
AcDbBlockEnd
0
BLOCK
5
1C
100
AcDbEntity
100
AcDbBlockBegin
2
*PAPER_SPACE
0
ENDBLK
5
1D
100
AcDbEntity
100
AcDbBlockEnd
0
ENDSEC
0
SECTION
2
ENTITIES
0
LWPOLYLINE
5
100
100
AcDbEntity
8
0
100
AcDbPolyline
90
4
70
1
43
0.0
10
-0.024507283884515708
20
101.02892139055457
10
134.9754927161155
20
101.02892139055457
10
134.9754927161155
20
121.02892139055457
10
-0.024507283884515708
20
121.02892139055457
0
LINE
5
101
100
AcDbEntity
8
0
100
AcDbLine
10
-0.024507283884515757
20
111.12470486261573
30
0
11
-0.024507283884515757
21
114.55572702982154
31
0
0
SPLINE
5
102
100
AcDbEntity
8
0
100
AcDbSpline
70
0
71
2
72
6
73
3
74
0
42
0.000000001
43
0.0000000001
44
0.0000000001
40
0
40
0
40
0
40
1
40
1
40
1
10
-0.024507283884515757
20
114.55572702982154
30
0
10
-0.024507283884515757
20
117.55215385057654
30
0
10
1.4679873588500119
20
119.29053762056556
30
0
0
SPLINE
5
103
100
AcDbEntity
8
0
100
AcDbSpline
70
0
71
2
72
6
73
3
74
0
42
0.000000001
43
0.0000000001
44
0.0000000001
40
0
40
0
40
0
40
1
40
1
40
1
10
1.4679873588500119
20
119.29053762056556
30
0
10
2.9604822996077633
20
121.02892258264747
30
0
10
5.533749521058569
20
121.02892258264747
30
0
0
SPLINE
5
104
100
AcDbEntity
8
0
100
AcDbSpline
70
0
71
2
72
6
73
3
74
0
42
0.000000001
43
0.0000000001
44
0.0000000001
40
0
40
0
40
0
40
1
40
1
40
1
10
5.533749521058569
20
121.02892258264747
30
0
10
8.1070155504164791
20
121.02892258264747
30
0
10
9.6052283647475338
20
119.29053762056556
30
0
0
SPLINE
5
105
100
AcDbEntity
8
0
100
AcDbSpline
70
0
71
2
72
6
73
3
74
0
42
0.000000001
43
0.0000000001
44
0.0000000001
40
0
40
0
40
0
40
1
40
1
40
1
10
9.6052283647475338
20
119.29053762056556
30
0
10
11.103441179078589
20
117.55215385057654
30
0
10
11.103441179078589
20
114.55572702982154
30
0
0
LINE
5
106
100
AcDbEntity
8
0
100
AcDbLine
10
11.103441179078589
20
114.55572702982154
30
0
11
11.103441179078589
21
111.12470486261573
31
0
0
SPLINE
5
107
100
AcDbEntity
8
0
100
AcDbSpline
70
0
71
2
72
6
73
3
74
0
42
0.000000001
43
0.0000000001
44
0.0000000001
40
0
40
0
40
0
40
1
40
1
40
1
10
11.103441179078589
20
111.12470486261573
30
0
10
11.103441179078589
20
108.12827804186072
30
0
10
9.6052283647475338
20
106.38417461015906
30
0
0
SPLINE
5
108
100
AcDbEntity
8
0
100
AcDbSpline
70
0
71
2
72
6
73
3
74
0
42
0.000000001
43
0.0000000001
44
0.0000000001
40
0
40
0
40
0
40
1
40
1
40
1
10
9.6052283647475338
20
106.38417461015906
30
0
10
8.1070155504164791
20
104.6400723705503
30
0
10
5.533749521058569
20
104.6400723705503
30
0
0
SPLINE
5
109
100
AcDbEntity
8
0
100
AcDbSpline
70
0
71
2
72
6
73
3
74
0
42
0.000000001
43
0.0000000001
44
0.0000000001
40
0
40
0
40
0
40
1
40
1
40
1
10
5.533749521058569
20
104.6400723705503
30
0
10
2.9604822996077633
20
104.6400723705503
30
0
10
1.4679873588500119
20
106.38417461015906
30
0
0
SPLINE
5
110
100
AcDbEntity
8
0
100
AcDbSpline
70
0
71
2
72
6
73
3
74
0
42
0.000000001
43
0.0000000001
44
0.0000000001
40
0
40
0
40
0
40
1
40
1
40
1
10
1.4679873588500119
20
106.38417461015906
30
0
10
-0.024507283884515757
20
108.12827804186072
30
0
10
-0.024507283884515757
20
111.12470486261573
30
0
0
LINE
5
111
100
AcDbEntity
8
0
100
AcDbLine
10
4.4243854883132077
20
115.47066667177405
30
0
11
4.4243854883132077
21
110.20976402857032
31
0
0
SPLINE
5
112
100
AcDbEntity
8
0
100
AcDbSpline
70
0
71
2
72
6
73
3
74
0
42
0.000000001
43
0.0000000001
44
0.0000000001
40
0
40
0
40
0
40
1
40
1
40
1
10
4.4243854883132077
20
110.20976402857032
30
0
10
4.4243854883132077
20
108.78017284967628
30
0
10
5.533749521058569
20
108.78017284967628
30
0
0
SPLINE
5
113
100
AcDbEntity
8
0
100
AcDbSpline
70
0
71
2
72
6
73
3
74
0
42
0.000000001
43
0.0000000001
44
0.0000000001
40
0
40
0
40
0
40
1
40
1
40
1
10
5.533749521058569
20
108.78017284967628
30
0
10
6.6545493009505368
20
108.78017284967628
30
0
10
6.6545493009505368
20
110.20976402857032
30
0
0
LINE
5
114
100
AcDbEntity
8
0
100
AcDbLine
10
6.6545493009505368
20
110.20976402857032
30
0
11
6.6545493009505368
21
115.47066667177405
31
0
0
SPLINE
5
115
100
AcDbEntity
8
0
100
AcDbSpline
70
0
71
2
72
6
73
3
74
0
42
0.000000001
43
0.0000000001
44
0.0000000001
40
0
40
0
40
0
40
1
40
1
40
1
10
6.6545493009505368
20
115.47066667177405
30
0
10
6.6545493009505368
20
116.90025904276099
30
0
10
5.533749521058569
20
116.90025904276099
30
0
0
SPLINE
5
116
100
AcDbEntity
8
0
100
AcDbSpline
70
0
71
2
72
6
73
3
74
0
42
0.000000001
43
0.0000000001
44
0.0000000001
40
0
40
0
40
0
40
1
40
1
40
1
10
5.533749521058569
20
116.90025904276099
30
0
10
4.4243854883132077
20
116.90025904276099
30
0
10
4.4243854883132077
20
115.47066667177405
30
0
0
LINE
5
117
100
AcDbEntity
8
0
100
AcDbLine
10
21.07628053454734
20
120.64007260896888
30
0
11
21.07628053454734
21
105.02892115213599
31
0
0
LINE
5
118
100
AcDbEntity
8
0
100
AcDbLine
10
21.07628053454734
20
105.02892115213599
30
0
11
16.650261342805397
21
105.02892115213599
31
0
0
LINE
5
119
100
AcDbEntity
8
0
100
AcDbLine
10
16.650261342805393
20
105.02892115213599
30
0
11
16.650261342805393
21
120.64007260896888
31
0
0
LINE
5
120
100
AcDbEntity
8
0
100
AcDbLine
10
16.650261342805393
20
120.64007260896888
30
0
11
21.07628053454734
21
120.64007260896888
31
0
0
LINE
5
121
100
AcDbEntity
8
0
100
AcDbLine
10
37.693867147248753
20
109.54643347360816
30
0
11
37.693867147248753
21
105.02892115213599
31
0
0
LINE
5
122
100
AcDbEntity
8
0
100
AcDbLine
10
37.693867147248753
20
105.02892115213599
30
0
11
27.606660783570778
21
105.02892115213599
31
0
0
LINE
5
123
100
AcDbEntity
8
0
100
AcDbLine
10
27.606660783570778
20
105.02892115213599
30
0
11
32.615954339784153
21
114.42992308237281
31
0
0
LINE
5
124
100
AcDbEntity
8
0
100
AcDbLine
10
32.615954339784153
20
114.42992308237281
30
0
11
32.7875036600051
21
114.75015142061439
31
0
0
SPLINE
5
125
100
AcDbEntity
8
0
100
AcDbSpline
70
0
71
2
72
6
73
3
74
0
42
0.000000001
43
0.0000000001
44
0.0000000001
40
0
40
0
40
0
40
1
40
1
40
1
10
32.7875036600051
20
114.75015142061439
30
0
10
32.993366182130345
20
115.12756326296058
30
0
10
32.993366182130345
20
115.49353935816016
30
0
0
SPLINE
5
126
100
AcDbEntity
8
0
100
AcDbSpline
70
0
71
2
72
6
73
3
74
0
42
0.000000001
43
0.0000000001
44
0.0000000001
40
0
40
0
40
0
40
1
40
1
40
1
10
32.993366182130345
20
115.49353935816016
30
0
10
32.993366182130345
20
116.41991593935218
30
0
10
31.906876027863991
20
116.41991593935218
30
0
0
SPLINE
5
127
100
AcDbEntity
8
0
100
AcDbSpline
70
0
71
2
72
6
73
3
74
0
42
0.000000001
43
0.0000000001
44
0.0000000001
40
0
40
0
40
0
40
1
40
1
40
1
10
31.906876027863991
20
116.41991593935218
30
0
10
31.483716428559791
20
116.41991593935218
30
0
10
31.169206559937965
20
116.10540487863746
30
0
0
SPLINE
5
128
100
AcDbEntity
8
0
100
AcDbSpline
70
0
71
2
72
6
73
3
74
0
42
0.000000001
43
0.0000000001
44
0.0000000001
40
0
40
0
40
0
40
1
40
1
40
1
10
31.169206559937965
20
116.10540487863746
30
0
10
30.854696691316139
20
115.79089501001563
30
0
10
30.854696691316139
20
115.36773541071143
30
0
0
SPLINE
5
129
100
AcDbEntity
8
0
100
AcDbSpline
70
0
71
2
72
6
73
3
74
0
42
0.000000001
43
0.0000000001
44
0.0000000001
40
0
40
0
40
0
40
1
40
1
40
1
10
30.854696691316139
20
115.36773541071143
30
0
10
30.854696691316139
20
114.88739230730262
30
0
10
31.266416967195045
20
114.49854233362403
30
0
0
LINE
5
130
100
AcDbEntity
8
0
100
AcDbLine
10
31.266416967195045
20
114.49854233362403
30
0
11
29.264988363069069
21
110.93027927972999
31
0
0
SPLINE
5
131
100
AcDbEntity
8
0
100
AcDbSpline
70
0
71
2
72
6
73
3
74
0
42
0.000000001
43
0.0000000001
44
0.0000000001
40
0
40
0
40
0
40
1
40
1
40
1
10
29.264988363069069
20
110.93027927972999
30
0
10
28.006946504395973
20
111.70797803499427
30
0
10
27.332179010194313
20
112.90883638956275
30
0
0
SPLINE
5
132
100
AcDbEntity
8
0
100
AcDbSpline
70
0
71
2
72
6
73
3
74
0
42
0.000000001
43
0.0000000001
44
0.0000000001
40
0
40
0
40
0
40
1
40
1
40
1
10
27.332179010194313
20
112.90883638956275
30
0
10
26.657411515992653
20
114.10969355203834
30
0
10
26.657411515992653
20
115.56215980150428
30
0
0
SPLINE
5
133
100
AcDbEntity
8
0
100
AcDbSpline
70
0
71
2
72
6
73
3
74
0
42
0.000000001
43
0.0000000001
44
0.0000000001
40
0
40
0
40
0
40
1
40
1
40
1
10
26.657411515992653
20
115.56215980150428
30
0
10
26.657411515992653
20
117.81519749262061
30
0
10
28.247117460053932
20
119.42206003763404
30
0
0
SPLINE
5
134
100
AcDbEntity
8
0
100
AcDbSpline
70
0
71
2
72
6
73
3
74
0
42
0.000000001
43
0.0000000001
44
0.0000000001
40
0
40
0
40
0
40
1
40
1
40
1
10
28.247117460053932
20
119.42206003763404
30
0
10
29.836825788301002
20
121.02892258264747
30
0
10
32.089862287324436
20
121.02892258264747
30
0
0
SPLINE
5
135
100
AcDbEntity
8
0
100
AcDbSpline
70
0
71
2
72
6
73
3
74
0
42
0.000000001
43
0.0000000001
44
0.0000000001
40
0
40
0
40
0
40
1
40
1
40
1
10
32.089862287324436
20
121.02892258264747
30
0
10
34.354338109773167
20
121.02892258264747
30
0
10
35.938326776307591
20
119.43921544649329
30
0
0
SPLINE
5
136
100
AcDbEntity
8
0
100
AcDbSpline
70
0
71
2
72
6
73
3
74
0
42
0.000000001
43
0.0000000001
44
0.0000000001
40
0
40
0
40
0
40
1
40
1
40
1
10
35.938326776307591
20
119.43921544649329
30
0
10
37.522315442842014
20
117.84950831033912
30
0
10
37.522315442842014
20
115.57359674074378
30
0
0
SPLINE
5
137
100
AcDbEntity
8
0
100
AcDbSpline
70
0
71
2
72
6
73
3
74
0
42
0.000000001
43
0.0000000001
44
0.0000000001
40
0
40
0
40
0
40
1
40
1
40
1
10
37.522315442842014
20
115.57359674074378
30
0
10
37.522315442842014
20
114.26980831720557
30
0
10
36.93904346255637
20
113.14900734522071
30
0
0
LINE
5
138
100
AcDbEntity
8
0
100
AcDbLine
10
36.93904346255637
20
113.14900734522071
30
0
11
35.086290300172337
21
109.54643347360816
31
0
0
LINE
5
139
100
AcDbEntity
8
0
100
AcDbLine
10
35.086290300172337
20
109.54643347360816
30
0
11
37.693867147248753
21
109.54643347360816
31
0
0
LINE
5
140
100
AcDbEntity
8
0
100
AcDbLine
10
41.342186391633518
20
120.64007380106177
30
0
11
49.610952794831761
21
120.64007380106177
31
0
0
LINE
5
141
100
AcDbEntity
8
0
100
AcDbLine
10
49.610952794831761
20
120.64007380106177
30
0
11
47.060560643952854
21
114.63578322031226
31
0
0
SPLINE
5
142
100
AcDbEntity
8
0
100
AcDbSpline
70
0
71
2
72
6
73
3
74
0
42
0.000000001
43
0.0000000001
44
0.0000000001
40
0
40
0
40
0
40
1
40
1
40
1
10
47.060560643952854
20
114.63578322031226
30
0
10
48.432964742463597
20
113.70940783121314
30
0
10
49.056267202180393
20
112.60576226808753
30
0
0
SPLINE
5
143
100
AcDbEntity
8
0
100
AcDbSpline
70
0
71
2
72
6
73
3
74
0
42
0.000000001
43
0.0000000001
44
0.0000000001
40
0
40
0
40
0
40
1
40
1
40
1
10
49.056267202180393
20
112.60576226808753
30
0
10
49.67956966189719
20
111.50211670496192
30
0
10
49.67956966189719
20
109.99246695139136
30
0
0
SPLINE
5
144
100
AcDbEntity
8
0
100
AcDbSpline
70
0
71
2
72
6
73
3
74
0
42
0.000000001
43
0.0000000001
44
0.0000000001
40
0
40
0
40
0
40
1
40
1
40
1
10
49.67956966189719
20
109.99246695139136
30
0
10
49.67956966189719
20
107.73942926027503
30
0
10
48.02124446658469
20
106.18975021936622
30
0
0
SPLINE
5
145
100
AcDbEntity
8
0
100
AcDbSpline
70
0
71
2
72
6
73
3
74
0
42
0.000000001
43
0.0000000001
44
0.0000000001
40
0
40
0
40
0
40
1
40
1
40
1
10
48.02124446658469
20
106.18975021936622
30
0
10
46.36291927127219
20
104.6400723705503
30
0
10
43.938326299470432
20
104.6400723705503
30
0
0
SPLINE
5
146
100
AcDbEntity
8
0
100
AcDbSpline
70
0
71
2
72
6
73
3
74
0
42
0.000000001
43
0.0000000001
44
0.0000000001
40
0
40
0
40
0
40
1
40
1
40
1
10
43.938326299470432
20
104.6400723705503
30
0
10
42.600230634492405
20
104.6400723705503
30
0
10
41.2850040796218
20
105.14328816034522
30
0
0
LINE
5
147
100
AcDbEntity
8
0
100
AcDbLine
10
41.2850040796218
20
105.14328816034522
30
0
11
41.2850040796218
21
109.55787041284766
31
0
0
SPLINE
5
148
100
AcDbEntity
8
0
100
AcDbSpline
70
0
71
2
72
6
73
3
74
0
42
0.000000001
43
0.0000000001
44
0.0000000001
40
0
40
0
40
0
40
1
40
1
40
1
10
41.2850040796218
20
109.55787041284766
30
0
10
42.280001104157932
20
108.94028642275062
30
0
10
43.011950910371311
20
108.94028642275062
30
0
0
SPLINE
5
149
100
AcDbEntity
8
0
100
AcDbSpline
70
0
71
2
72
6
73
3
74
0
42
0.000000001
43
0.0000000001
44
0.0000000001
40
0
40
0
40
0
40
1
40
1
40
1
10
43.011950910371311
20
108.94028642275062
30
0
10
43.812522352021702
20
108.94028642275062
30
0
10
44.355768621247776
20
109.51212384798255
30
0
0
SPLINE
5
150
100
AcDbEntity
8
0
100
AcDbSpline
70
0
71
2
72
6
73
3
74
0
42
0.000000001
43
0.0000000001
44
0.0000000001
40
0
40
0
40
0
40
1
40
1
40
1
10
44.355768621247776
20
109.51212384798255
30
0
10
44.89901489047385
20
110.08396008112159
30
0
10
44.89901489047385
20
110.93027927972999
30
0
0
SPLINE
5
151
100
AcDbEntity
8
0
100
AcDbSpline
70
0
71
2
72
6
73
3
74
0
42
0.000000001
43
0.0000000001
44
0.0000000001
40
0
40
0
40
0
40
1
40
1
40
1
10
44.89901489047385
20
110.93027927972999
30
0
10
44.89901489047385
20
111.90240242578712
30
0
10
44.087004125398167
20
112.47995712854591
30
0
0
SPLINE
5
152
100
AcDbEntity
8
0
100
AcDbSpline
70
0
71
2
72
6
73
3
74
0
42
0.000000001
43
0.0000000001
44
0.0000000001
40
0
40
0
40
0
40
1
40
1
40
1
10
44.087004125398167
20
112.47995712854591
30
0
10
43.274998128694065
20
113.05751421549049
30
0
10
41.914023816865452
20
113.05751421549049
30
0
0
LINE
5
153
100
AcDbEntity
8
0
100
AcDbLine
10
41.914023816865452
20
113.05751421549049
30
0
11
43.069137990754612
21
116.13399722673621
31
0
0
LINE
5
154
100
AcDbEntity
8
0
100
AcDbLine
10
43.069137990754612
20
116.13399722673621
30
0
11
41.342186391633518
21
116.13399722673621
31
0
0
LINE
5
155
100
AcDbEntity
8
0
100
AcDbLine
10
41.342186391633518
20
116.13399722673621
30
0
11
41.342186391633518
21
120.64007380106177
31
0
0
LINE
5
156
100
AcDbEntity
8
0
100
AcDbLine
10
64.535898626130589
20
120.64007260896888
30
0
11
64.535898626130589
21
105.02892115213599
31
0
0
LINE
5
157
100
AcDbEntity
8
0
100
AcDbLine
10
64.535898626130589
20
105.02892115213599
30
0
11
60.144190252107151
21
105.02892115213599
31
0
0
LINE
5
158
100
AcDbEntity
8
0
100
AcDbLine
10
60.144190252107151
20
105.02892115213599
30
0
11
60.144190252107151
21
116.94600560762611
31
0
0
LINE
5
159
100
AcDbEntity
8
0
100
AcDbLine
10
60.144190252107151
20
116.94600560762611
30
0
11
58.199943959992893
21
113.08038690187659
31
0
0
LINE
5
160
100
AcDbEntity
8
0
100
AcDbLine
10
58.199943959992893
20
113.08038690187659
30
0
11
59.160627782624729
21
113.08038690187659
31
0
0
LINE
5
161
100
AcDbEntity
8
0
100
AcDbLine
10
59.160627782624729
20
113.08038690187659
30
0
11
59.160627782624729
21
109.68367436029639
31
0
0
LINE
5
162
100
AcDbEntity
8
0
100
AcDbLine
10
59.160627782624729
20
109.68367436029639
30
0
11
53.064846456330784
21
109.68367436029639
31
0
0
LINE
5
163
100
AcDbEntity
8
0
100
AcDbLine
10
53.064846456330784
20
109.68367436029639
30
0
11
57.685288846772679
21
120.64007260896888
31
0
0
LINE
5
164
100
AcDbEntity
8
0
100
AcDbLine
10
57.685288846772679
20
120.64007260896888
30
0
11
64.535898626130589
21
120.64007260896888
31
0
0
LINE
5
165
100
AcDbEntity
8
0
100
AcDbLine
10
76.350049436372288
20
120.64007380106177
30
0
11
76.350049436372288
21
116.15687110521522
31
0
0
LINE
5
166
100
AcDbEntity
8
0
100
AcDbLine
10
76.350049436372288
20
116.15687110521522
30
0
11
72.50730460910178
21
116.15687110521522
31
0
0
LINE
5
167
100
AcDbEntity
8
0
100
AcDbLine
10
72.50730460910178
20
116.15687110521522
30
0
11
72.301444471162327
21
115.44779279329505
31
0
0
SPLINE
5
168
100
AcDbEntity
8
0
100
AcDbSpline
70
0
71
2
72
6
73
3
74
0
42
0.000000001
43
0.0000000001
44
0.0000000001
40
0
40
0
40
0
40
1
40
1
40
1
10
72.301444471162327
20
115.44779279329505
30
0
10
74.40580314425803
20
114.84164574243751
30
0
10
75.412239492219456
20
113.69797089197364
30
0
0
SPLINE
5
169
100
AcDbEntity
8
0
100
AcDbSpline
70
0
71
2
72
6
73
3
74
0
42
0.000000001
43
0.0000000001
44
0.0000000001
40
0
40
0
40
0
40
1
40
1
40
1
10
75.412239492219456
20
113.69797089197364
30
0
10
76.796082914155491
20
112.14257338144508
30
0
10
76.796082914155491
20
109.96959307291236
30
0
0
SPLINE
5
170
100
AcDbEntity
8
0
100
AcDbSpline
70
0
71
2
72
6
73
3
74
0
42
0.000000001
43
0.0000000001
44
0.0000000001
40
0
40
0
40
0
40
1
40
1
40
1
10
76.796082914155491
20
109.96959307291236
30
0
10
76.796082914155491
20
107.67080881693091
30
0
10
75.10916179446555
20
106.15544059374061
30
0
0
SPLINE
5
171
100
AcDbEntity
8
0
100
AcDbSpline
70
0
71
2
72
6
73
3
74
0
42
0.000000001
43
0.0000000001
44
0.0000000001
40
0
40
0
40
0
40
1
40
1
40
1
10
75.10916179446555
20
106.15544059374061
30
0
10
73.42224544314719
20
104.6400723705503
30
0
10
70.860413968842991
20
104.6400723705503
30
0
0
SPLINE
5
172
100
AcDbEntity
8
0
100
AcDbSpline
70
0
71
2
72
6
73
3
74
0
42
0.000000001
43
0.0000000001
44
0.0000000001
40
0
40
0
40
0
40
1
40
1
40
1
10
70.860413968842991
20
104.6400723705503
30
0
10
69.133467138093479
20
104.6400723705503
30
0
10
67.452263295930393
20
105.54357388117042
30
0
0
LINE
5
173
100
AcDbEntity
8
0
100
AcDbLine
10
67.452263295930393
20
105.54357388117042
30
0
11
67.452263295930393
21
109.38631990053382
31
0
0
SPLINE
5
174
100
AcDbEntity
8
0
100
AcDbSpline
70
0
71
2
72
6
73
3
74
0
42
0.000000001
43
0.0000000001
44
0.0000000001
40
0
40
0
40
0
40
1
40
1
40
1
10
67.452263295930393
20
109.38631990053382
30
0
10
68.790363729280003
20
108.73442509271827
30
0
10
69.808234632295139
20
108.73442509271827
30
0
0
SPLINE
5
175
100
AcDbEntity
8
0
100
AcDbSpline
70
0
71
2
72
6
73
3
74
0
42
0.000000001
43
0.0000000001
44
0.0000000001
40
0
40
0
40
0
40
1
40
1
40
1
10
69.808234632295139
20
108.73442509271827
30
0
10
70.860413968842991
20
108.73442509271827
30
0
10
71.472281873506077
20
109.21476819612708
30
0
0
SPLINE
5
176
100
AcDbEntity
8
0
100
AcDbSpline
70
0
71
2
72
6
73
3
74
0
42
0.000000001
43
0.0000000001
44
0.0000000001
40
0
40
0
40
0
40
1
40
1
40
1
10
71.472281873506077
20
109.21476819612708
30
0
10
72.084145009797581
20
109.6951112995359
30
0
10
72.084145009797581
20
110.51855661966529
30
0
0
SPLINE
5
177
100
AcDbEntity
8
0
100
AcDbSpline
70
0
71
2
72
6
73
3
74
0
42
0.000000001
43
0.0000000001
44
0.0000000001
40
0
40
0
40
0
40
1
40
1
40
1
10
72.084145009797581
20
110.51855661966529
30
0
10
72.084145009797581
20
111.44493200876441
30
0
10
71.140613019746311
20
112.08539106943336
30
0
0
SPLINE
5
178
100
AcDbEntity
8
0
100
AcDbSpline
70
0
71
2
72
6
73
3
74
0
42
0.000000001
43
0.0000000001
44
0.0000000001
40
0
40
0
40
0
40
1
40
1
40
1
10
71.140613019746311
20
112.08539106943336
30
0
10
70.197081029695042
20
112.72584774591651
30
0
10
68.813237607759007
20
112.72584774591651
30
0
0
SPLINE
5
179
100
AcDbEntity
8
0
100
AcDbSpline
70
0
71
2
72
6
73
3
74
0
42
0.000000001
43
0.0000000001
44
0.0000000001
40
0
40
0
40
0
40
1
40
1
40
1
10
68.813237607759007
20
112.72584774591651
30
0
10
68.287147939485081
20
112.72584774591651
30
0
10
67.417954862397679
20
112.53142335512366
30
0
0
LINE
5
180
100
AcDbEntity
8
0
100
AcDbLine
10
67.417954862397679
20
112.53142335512366
30
0
11
69.099153936189182
21
120.64007380106177
31
0
0
LINE
5
181
100
AcDbEntity
8
0
100
AcDbLine
10
69.099153936189182
20
120.64007380106177
30
0
11
76.350049436372288
21
120.64007380106177
31
0
0
LINE
5
182
100
AcDbEntity
8
0
100
AcDbLine
10
82.926172673982151
20
121.09754302599158
30
0
11
87.031969487946995
21
119.64507677652564
31
0
0
LINE
5
183
100
AcDbEntity
8
0
100
AcDbLine
10
87.031969487946995
20
119.64507677652564
30
0
11
83.989796102326878
21
111.11326792337623
31
0
0
SPLINE
5
184
100
AcDbEntity
8
0
100
AcDbSpline
70
0
71
2
72
6
73
3
74
0
42
0.000000001
43
0.0000000001
44
0.0000000001
40
0
40
0
40
0
40
1
40
1
40
1
10
83.989796102326878
20
111.11326792337623
30
0
10
83.852552831452854
20
110.74729182817664
30
0
10
83.852552831452854
20
110.46137311556068
30
0
0
SPLINE
5
185
100
AcDbEntity
8
0
100
AcDbSpline
70
0
71
2
72
6
73
3
74
0
42
0.000000001
43
0.0000000001
44
0.0000000001
40
0
40
0
40
0
40
1
40
1
40
1
10
83.852552831452854
20
110.46137311556068
30
0
10
83.852552831452854
20
109.84378912546363
30
0
10
84.310020864289768
20
109.39775683977332
30
0
0
SPLINE
5
186
100
AcDbEntity
8
0
100
AcDbSpline
70
0
71
2
72
6
73
3
74
0
42
0.000000001
43
0.0000000001
44
0.0000000001
40
0
40
0
40
0
40
1
40
1
40
1
10
84.310020864289768
20
109.39775683977332
30
0
10
84.767488897126682
20
108.95172336199012
30
0
10
85.396513402741917
20
108.95172336199012
30
0
0
SPLINE
5
187
100
AcDbEntity
8
0
100
AcDbSpline
70
0
71
2
72
6
73
3
74
0
42
0.000000001
43
0.0000000001
44
0.0000000001
40
0
40
0
40
0
40
1
40
1
40
1
10
85.396513402741917
20
108.95172336199012
30
0
10
86.025537908357151
20
108.95172336199012
30
0
10
86.465849340241917
20
109.40347530939307
30
0
0
SPLINE
5
188
100
AcDbEntity
8
0
100
AcDbSpline
70
0
71
2
72
6
73
3
74
0
42
0.000000001
43
0.0000000001
44
0.0000000001
40
0
40
0
40
0
40
1
40
1
40
1
10
86.465849340241917
20
109.40347530939307
30
0
10
86.906160772126682
20
109.85522606470313
30
0
10
86.906160772126682
20
110.49568274118629
30
0
0
SPLINE
5
189
100
AcDbEntity
8
0
100
AcDbSpline
70
0
71
2
72
6
73
3
74
0
42
0.000000001
43
0.0000000001
44
0.0000000001
40
0
40
0
40
0
40
1
40
1
40
1
10
86.906160772126682
20
110.49568274118629
30
0
10
86.906160772126682
20
111.13614060976234
30
0
10
86.465849340241917
20
111.58217289545264
30
0
0
SPLINE
5
190
100
AcDbEntity
8
0
100
AcDbSpline
70
0
71
2
72
6
73
3
74
0
42
0.000000001
43
0.0000000001
44
0.0000000001
40
0
40
0
40
0
40
1
40
1
40
1
10
86.465849340241917
20
111.58217289545264
30
0
10
86.025537908357151
20
112.02820637323585
30
0
10
85.396513402741917
20
112.02820637323585
30
0
0
SPLINE
5
191
100
AcDbEntity
8
0
100
AcDbSpline
70
0
71
2
72
6
73
3
74
0
42
0.000000001
43
0.0000000001
44
0.0000000001
40
0
40
0
40
0
40
1
40
1
40
1
10
85.396513402741917
20
112.02820637323585
30
0
10
85.247835576814182
20
112.02820637323585
30
0
10
84.950479924958714
20
111.98245980837073
30
0
0
LINE
5
192
100
AcDbEntity
8
0
100
AcDbLine
10
84.950479924958714
20
111.98245980837073
30
0
11
86.814665258210667
21
116.46566250421729
31
0
0
SPLINE
5
193
100
AcDbEntity
8
0
100
AcDbSpline
70
0
71
2
72
6
73
3
74
0
42
0.000000001
43
0.0000000001
44
0.0000000001
40
0
40
0
40
0
40
1
40
1
40
1
10
86.814665258210667
20
116.46566250421729
30
0
10
89.239258230012425
20
115.41348316766944
30
0
10
90.308594167512425
20
114.04679157831397
30
0
0
SPLINE
5
194
100
AcDbEntity
8
0
100
AcDbSpline
70
0
71
2
72
6
73
3
74
0
42
0.000000001
43
0.0000000001
44
0.0000000001
40
0
40
0
40
0
40
1
40
1
40
1
10
90.308594167512425
20
114.04679157831397
30
0
10
91.377930105012425
20
112.6801011810514
30
0
10
91.377930105012425
20
110.65579750635352
30
0
0
SPLINE
5
195
100
AcDbEntity
8
0
100
AcDbSpline
70
0
71
2
72
6
73
3
74
0
42
0.000000001
43
0.0000000001
44
0.0000000001
40
0
40
0
40
0
40
1
40
1
40
1
10
91.377930105012425
20
110.65579750635352
30
0
10
91.377930105012425
20
108.11684110262122
30
0
10
89.645265996736057
20
106.37845614053931
30
0
0
SPLINE
5
196
100
AcDbEntity
8
0
100
AcDbSpline
70
0
71
2
72
6
73
3
74
0
42
0.000000001
43
0.0000000001
44
0.0000000001
40
0
40
0
40
0
40
1
40
1
40
1
10
89.645265996736057
20
106.37845614053931
30
0
10
87.912592351716526
20
104.6400723705503
30
0
10
85.396513402741917
20
104.6400723705503
30
0
0
SPLINE
5
197
100
AcDbEntity
8
0
100
AcDbSpline
70
0
71
2
72
6
73
3
74
0
42
0.000000001
43
0.0000000001
44
0.0000000001
40
0
40
0
40
0
40
1
40
1
40
1
10
85.396513402741917
20
104.6400723705503
30
0
10
83.017668187898167
20
104.6400723705503
30
0
10
81.239256322663792
20
106.38417461015906
30
0
0
SPLINE
5
198
100
AcDbEntity
8
0
100
AcDbSpline
70
0
71
2
72
6
73
3
74
0
42
0.000000001
43
0.0000000001
44
0.0000000001
40
0
40
0
40
0
40
1
40
1
40
1
10
81.239256322663792
20
106.38417461015906
30
0
10
79.460844457429417
20
108.12827804186072
30
0
10
79.460844457429417
20
110.46137311556068
30
0
0
SPLINE
5
199
100
AcDbEntity
8
0
100
AcDbSpline
70
0
71
2
72
6
73
3
74
0
42
0.000000001
43
0.0000000001
44
0.0000000001
40
0
40
0
40
0
40
1
40
1
40
1
10
79.460844457429417
20
110.46137311556068
30
0
10
79.460844457429417
20
111.53642752268043
30
0
10
80.295729100984104
20
113.84664871790137
30
0
0
LINE
5
200
100
AcDbEntity
8
0
100
AcDbLine
10
80.295729100984104
20
113.84664871790137
30
0
11
82.926172673982151
21
121.09754302599158
31
0
0
LINE
5
201
100
AcDbEntity
8
0
100
AcDbLine
10
104.00409168032981
20
120.64007260896888
30
0
11
99.463705480378636
21
105.02892115213599
31
0
0
LINE
5
202
100
AcDbEntity
8
0
100
AcDbLine
10
99.463705480378636
20
105.02892115213599
30
0
11
94.717459142488011
21
105.02892115213599
31
0
0
LINE
5
203
100
AcDbEntity
8
0
100
AcDbLine
10
94.717459142488011
20
105.02892115213599
30
0
11
98.251413762849339
21
116.15686991312232
31
0
0
LINE
5
204
100
AcDbEntity
8
0
100
AcDbLine
10
98.251413762849339
20
116.15686991312232
30
0
11
93.470854223054417
21
116.15686991312232
31
0
0
LINE
5
205
100
AcDbEntity
8
0
100
AcDbLine
10
93.470854223054417
20
116.15686991312232
30
0
11
93.470854223054417
21
120.64007260896888
31
0
0
LINE
5
206
100
AcDbEntity
8
0
100
AcDbLine
10
93.470854223054417
20
120.64007260896888
30
0
11
104.00409168032981
21
120.64007260896888
31
0
0
SPLINE
5
207
100
AcDbEntity
8
0
100
AcDbSpline
70
0
71
2
72
6
73
3
74
0
42
0.000000001
43
0.0000000001
44
0.0000000001
40
0
40
0
40
0
40
1
40
1
40
1
10
115.87542957095481
20
113.98388960458961
30
0
10
116.84754794864035
20
112.97745564081397
30
0
10
117.21353000430442
20
112.13113763429847
30
0
0
SPLINE
5
208
100
AcDbEntity
8
0
100
AcDbSpline
70
0
71
2
72
6
73
3
74
0
42
0.000000001
43
0.0000000001
44
0.0000000001
40
0
40
0
40
0
40
1
40
1
40
1
10
117.21353000430442
20
112.13113763429847
30
0
10
117.57950252322532
20
111.28481843569007
30
0
10
117.57950252322532
20
110.07252314188209
30
0
0
SPLINE
5
209
100
AcDbEntity
8
0
100
AcDbSpline
70
0
71
2
72
6
73
3
74
0
42
0.000000001
43
0.0000000001
44
0.0000000001
40
0
40
0
40
0
40
1
40
1
40
1
10
117.57950252322532
20
110.07252314188209
30
0
10
117.57950252322532
20
107.75086500742164
30
0
10
115.99551624087668
20
106.19546868898597
30
0
0
SPLINE
5
210
100
AcDbEntity
8
0
100
AcDbSpline
70
0
71
2
72
6
73
3
74
0
42
0.000000001
43
0.0000000001
44
0.0000000001
40
0
40
0
40
0
40
1
40
1
40
1
10
115.99551624087668
20
106.19546868898597
30
0
10
114.41152995852805
20
104.6400723705503
30
0
10
112.04411929873801
20
104.6400723705503
30
0
0
SPLINE
5
211
100
AcDbEntity
8
0
100
AcDbSpline
70
0
71
2
72
6
73
3
74
0
42
0.000000001
43
0.0000000001
44
0.0000000001
40
0
40
0
40
0
40
1
40
1
40
1
10
112.04411929873801
20
104.6400723705503
30
0
10
109.66527408389426
20
104.6400723705503
30
0
10
108.08128780154563
20
106.19546868898597
30
0
0
SPLINE
5
212
100
AcDbEntity
8
0
100
AcDbSpline
70
0
71
2
72
6
73
3
74
0
42
0.000000001
43
0.0000000001
44
0.0000000001
40
0
40
0
40
0
40
1
40
1
40
1
10
108.08128780154563
20
106.19546868898597
30
0
10
106.49730151919699
20
107.75086500742164
30
0
10
106.49730151919699
20
110.07252314188209
30
0
0
SPLINE
5
213
100
AcDbEntity
8
0
100
AcDbSpline
70
0
71
2
72
6
73
3
74
0
42
0.000000001
43
0.0000000001
44
0.0000000001
40
0
40
0
40
0
40
1
40
1
40
1
10
106.49730151919699
20
110.07252314188209
30
0
10
106.49730151919699
20
111.25050881006446
30
0
10
106.88043063907004
20
112.13113763429847
30
0
0
SPLINE
5
214
100
AcDbEntity
8
0
100
AcDbSpline
70
0
71
2
72
6
73
3
74
0
42
0.000000001
43
0.0000000001
44
0.0000000001
40
0
40
0
40
0
40
1
40
1
40
1
10
106.88043063907004
20
112.13113763429847
30
0
10
107.26355975894309
20
113.01176645853248
30
0
10
108.2013744714675
20
113.98388960458961
30
0
0
SPLINE
5
215
100
AcDbEntity
8
0
100
AcDbSpline
70
0
71
2
72
6
73
3
74
0
42
0.000000001
43
0.0000000001
44
0.0000000001
40
0
40
0
40
0
40
1
40
1
40
1
10
108.2013744714675
20
113.98388960458961
30
0
10
107.3550552728591
20
115.10469057657447
30
0
10
107.3550552728591
20
116.47709944345679
30
0
0
SPLINE
5
216
100
AcDbEntity
8
0
100
AcDbSpline
70
0
71
2
72
6
73
3
74
0
42
0.000000001
43
0.0000000001
44
0.0000000001
40
0
40
0
40
0
40
1
40
1
40
1
10
107.3550552728591
20
116.47709944345679
30
0
10
107.3550552728591
20
118.45565536119666
30
0
10
108.67028659610129
20
119.74228956796851
30
0
0
SPLINE
5
217
100
AcDbEntity
8
0
100
AcDbSpline
70
0
71
2
72
6
73
3
74
0
42
0.000000001
43
0.0000000001
44
0.0000000001
40
0
40
0
40
0
40
1
40
1
40
1
10
108.67028659610129
20
119.74228956796851
30
0
10
109.98550838260032
20
121.02892258264747
30
0
10
112.02125018863059
20
121.02892258264747
30
0
0
SPLINE
5
218
100
AcDbEntity
8
0
100
AcDbSpline
70
0
71
2
72
6
73
3
74
0
42
0.000000001
43
0.0000000001
44
0.0000000001
40
0
40
0
40
0
40
1
40
1
40
1
10
112.02125018863059
20
121.02892258264747
30
0
10
114.07986110476828
20
121.02892258264747
30
0
10
115.40080493716574
20
119.74800803758826
30
0
0
SPLINE
5
219
100
AcDbEntity
8
0
100
AcDbSpline
70
0
71
2
72
6
73
3
74
0
42
0.000000001
43
0.0000000001
44
0.0000000001
40
0
40
0
40
0
40
1
40
1
40
1
10
115.40080493716574
20
119.74800803758826
30
0
10
116.72174876956321
20
118.46709230043616
30
0
10
116.72174876956321
20
116.46566250421729
30
0
0
SPLINE
5
220
100
AcDbEntity
8
0
100
AcDbSpline
70
0
71
2
72
6
73
3
74
0
42
0.000000001
43
0.0000000001
44
0.0000000001
40
0
40
0
40
0
40
1
40
1
40
1
10
116.72174876956321
20
116.46566250421729
30
0
10
116.72174876956321
20
115.11612751581397
30
0
10
115.87542957095481
20
113.98388960458961
30
0
0
SPLINE
5
221
100
AcDbEntity
8
0
100
AcDbSpline
70
0
71
2
72
6
73
3
74
0
42
0.000000001
43
0.0000000001
44
0.0000000001
40
0
40
0
40
0
40
1
40
1
40
1
10
111.98693698672629
20
117.67795779802528
30
0
10
111.47228664187766
20
117.67795779802528
30
0
10
111.10059207705832
20
117.30054476358619
30
0
0
SPLINE
5
222
100
AcDbEntity
8
0
100
AcDbSpline
70
0
71
2
72
6
73
3
74
0
42
0.000000001
43
0.0000000001
44
0.0000000001
40
0
40
0
40
0
40
1
40
1
40
1
10
111.10059207705832
20
117.30054476358619
30
0
10
110.72889751223899
20
116.92313292124
30
0
10
110.72889751223899
20
116.41991593935218
30
0
0
SPLINE
5
223
100
AcDbEntity
8
0
100
AcDbSpline
70
0
71
2
72
6
73
3
74
0
42
0.000000001
43
0.0000000001
44
0.0000000001
40
0
40
0
40
0
40
1
40
1
40
1
10
110.72889751223899
20
116.41991593935218
30
0
10
110.72889751223899
20
115.83664157488074
30
0
10
111.09487003115989
20
115.45922973253455
30
0
0
SPLINE
5
224
100
AcDbEntity
8
0
100
AcDbSpline
70
0
71
2
72
6
73
3
74
0
42
0.000000001
43
0.0000000001
44
0.0000000001
40
0
40
0
40
0
40
1
40
1
40
1
10
111.09487003115989
20
115.45922973253455
30
0
10
111.46085208682395
20
115.08181669809547
30
0
10
112.0326847436843
20
115.08181669809547
30
0
0
SPLINE
5
225
100
AcDbEntity
8
0
100
AcDbSpline
70
0
71
2
72
6
73
3
74
0
42
0.000000001
43
0.0000000001
44
0.0000000001
40
0
40
0
40
0
40
1
40
1
40
1
10
112.0326847436843
20
115.08181669809547
30
0
10
112.54733508853293
20
115.08181669809547
30
0
10
112.91902965335227
20
115.47066667177405
30
0
0
SPLINE
5
226
100
AcDbEntity
8
0
100
AcDbSpline
70
0
71
2
72
6
73
3
74
0
42
0.000000001
43
0.0000000001
44
0.0000000001
40
0
40
0
40
0
40
1
40
1
40
1
10
112.91902965335227
20
115.47066667177405
30
0
10
113.2907242181716
20
115.85951545335975
30
0
10
113.2907242181716
20
116.38560631372657
30
0
0
SPLINE
5
227
100
AcDbEntity
8
0
100
AcDbSpline
70
0
71
2
72
6
73
3
74
0
42
0.000000001
43
0.0000000001
44
0.0000000001
40
0
40
0
40
0
40
1
40
1
40
1
10
113.2907242181716
20
116.38560631372657
30
0
10
113.2907242181716
20
116.9345698604795
30
0
10
112.91331714419699
20
117.30626323320594
30
0
0
SPLINE
5
228
100
AcDbEntity
8
0
100
AcDbSpline
70
0
71
2
72
6
73
3
74
0
42
0.000000001
43
0.0000000001
44
0.0000000001
40
0
40
0
40
0
40
1
40
1
40
1
10
112.91331714419699
20
117.30626323320594
30
0
10
112.53590053347922
20
117.67795779802528
30
0
10
111.98693698672629
20
117.67795779802528
30
0
0
SPLINE
5
229
100
AcDbEntity
8
0
100
AcDbSpline
70
0
71
2
72
6
73
3
74
0
42
0.000000001
43
0.0000000001
44
0.0000000001
40
0
40
0
40
0
40
1
40
1
40
1
10
112.02125018863059
20
111.85665466882911
30
0
10
111.24354785708762
20
111.85665466882911
30
0
10
110.68887180117942
20
111.31341078378883
30
0
0
SPLINE
5
230
100
AcDbEntity
8
0
100
AcDbSpline
70
0
71
2
72
6
73
3
74
0
42
0.000000001
43
0.0000000001
44
0.0000000001
40
0
40
0
40
0
40
1
40
1
40
1
10
110.68887180117942
20
111.31341078378883
30
0
10
110.13418620852805
20
110.77016451456275
30
0
10
110.13418620852805
20
110.00390389063087
30
0
0
SPLINE
5
231
100
AcDbEntity
8
0
100
AcDbSpline
70
0
71
2
72
6
73
3
74
0
42
0.000000001
43
0.0000000001
44
0.0000000001
40
0
40
0
40
0
40
1
40
1
40
1
10
110.13418620852805
20
110.00390389063087
30
0
10
110.13418620852805
20
109.16902163126197
30
0
10
110.67171520022727
20
108.61433961488929
30
0
0
SPLINE
5
232
100
AcDbEntity
8
0
100
AcDbSpline
70
0
71
2
72
6
73
3
74
0
42
0.000000001
43
0.0000000001
44
0.0000000001
40
0
40
0
40
0
40
1
40
1
40
1
10
110.67171520022727
20
108.61433961488929
30
0
10
111.20923465518332
20
108.05965759851661
30
0
10
112.02125018863059
20
108.05965759851661
30
0
0
SPLINE
5
233
100
AcDbEntity
8
0
100
AcDbSpline
70
0
71
2
72
6
73
3
74
0
42
0.000000001
43
0.0000000001
44
0.0000000001
40
0
40
0
40
0
40
1
40
1
40
1
10
112.02125018863059
20
108.05965759851661
30
0
10
112.83325618533469
20
108.05965759851661
30
0
10
113.37078517703391
20
108.61433961488929
30
0
0
SPLINE
5
234
100
AcDbEntity
8
0
100
AcDbSpline
70
0
71
2
72
6
73
3
74
0
42
0.000000001
43
0.0000000001
44
0.0000000001
40
0
40
0
40
0
40
1
40
1
40
1
10
113.37078517703391
20
108.61433961488929
30
0
10
113.90831416873313
20
109.16902163126197
30
0
10
113.90831416873313
20
110.00390389063087
30
0
0
SPLINE
5
235
100
AcDbEntity
8
0
100
AcDbSpline
70
0
71
2
72
6
73
3
74
0
42
0.000000001
43
0.0000000001
44
0.0000000001
40
0
40
0
40
0
40
1
40
1
40
1
10
113.90831416873313
20
110.00390389063087
30
0
10
113.90831416873313
20
110.75872757532325
30
0
10
113.34790653018332
20
111.30769112207618
30
0
0
SPLINE
5
236
100
AcDbEntity
8
0
100
AcDbSpline
70
0
71
2
72
6
73
3
74
0
42
0.000000001
43
0.0000000001
44
0.0000000001
40
0
40
0
40
0
40
1
40
1
40
1
10
113.34790653018332
20
111.30769112207618
30
0
10
112.78750842837668
20
111.85665466882911
30
0
10
112.02125018863059
20
111.85665466882911
30
0
0
LINE
5
237
100
AcDbEntity
8
0
100
AcDbLine
10
127.86114162234641
20
104.57145073511329
30
0
11
123.75534480838157
21
106.02391817667213
31
0
0
LINE
5
238
100
AcDbEntity
8
0
100
AcDbLine
10
123.75534480838157
20
106.02391817667213
30
0
11
126.79751819400168
21
114.55572702982154
31
0
0
SPLINE
5
239
100
AcDbEntity
8
0
100
AcDbSpline
70
0
71
2
72
6
73
3
74
0
42
0.000000001
43
0.0000000001
44
0.0000000001
40
0
40
0
40
0
40
1
40
1
40
1
10
126.79751819400168
20
114.55572702982154
30
0
10
126.92332690982199
20
114.92170193292823
30
0
10
126.92332690982199
20
115.2190575847837
30
0
0
SPLINE
5
240
100
AcDbEntity
8
0
100
AcDbSpline
70
0
71
2
72
6
73
3
74
0
42
0.000000001
43
0.0000000001
44
0.0000000001
40
0
40
0
40
0
40
1
40
1
40
1
10
126.92332690982199
20
115.2190575847837
30
0
10
126.92332690982199
20
115.83664157488074
30
0
10
126.46585887698508
20
116.28267505266395
30
0
0
SPLINE
5
241
100
AcDbEntity
8
0
100
AcDbSpline
70
0
71
2
72
6
73
3
74
0
42
0.000000001
43
0.0000000001
44
0.0000000001
40
0
40
0
40
0
40
1
40
1
40
1
10
126.46585887698508
20
116.28267505266395
30
0
10
126.00839084414817
20
116.72870853044715
30
0
10
125.37936633853293
20
116.72870853044715
30
0
0
SPLINE
5
242
100
AcDbEntity
8
0
100
AcDbSpline
70
0
71
2
72
6
73
3
74
0
42
0.000000001
43
0.0000000001
44
0.0000000001
40
0
40
0
40
0
40
1
40
1
40
1
10
125.37936633853293
20
116.72870853044715
30
0
10
124.7503418329177
20
116.72870853044715
30
0
10
124.31003040103293
20
116.2769565830442
30
0
0
SPLINE
5
243
100
AcDbEntity
8
0
100
AcDbSpline
70
0
71
2
72
6
73
3
74
0
42
0.000000001
43
0.0000000001
44
0.0000000001
40
0
40
0
40
0
40
1
40
1
40
1
10
124.31003040103293
20
116.2769565830442
30
0
10
123.86971896914817
20
115.82520582773414
30
0
10
123.86971896914817
20
115.18474795915809
30
0
0
SPLINE
5
244
100
AcDbEntity
8
0
100
AcDbSpline
70
0
71
2
72
6
73
3
74
0
42
0.000000001
43
0.0000000001
44
0.0000000001
40
0
40
0
40
0
40
1
40
1
40
1
10
123.86971896914817
20
115.18474795915809
30
0
10
123.86971896914817
20
114.53285315134254
30
0
10
124.31003040103293
20
114.08681967355933
30
0
0
SPLINE
5
245
100
AcDbEntity
8
0
100
AcDbSpline
70
0
71
2
72
6
73
3
74
0
42
0.000000001
43
0.0000000001
44
0.0000000001
40
0
40
0
40
0
40
1
40
1
40
1
10
124.31003040103293
20
114.08681967355933
30
0
10
124.7503418329177
20
113.64078738786903
30
0
10
125.39080089358664
20
113.64078738786903
30
0
0
SPLINE
5
246
100
AcDbEntity
8
0
100
AcDbSpline
70
0
71
2
72
6
73
3
74
0
42
0.000000001
43
0.0000000001
44
0.0000000001
40
0
40
0
40
0
40
1
40
1
40
1
10
125.39080089358664
20
113.64078738786903
30
0
10
125.52804416446067
20
113.64078738786903
30
0
10
125.82539981631614
20
113.68653395273414
30
0
0
LINE
5
247
100
AcDbEntity
8
0
100
AcDbLine
10
125.82539981631614
20
113.68653395273414
30
0
11
123.97264903811789
21
109.20333244898048
31
0
0
SPLINE
5
248
100
AcDbEntity
8
0
100
AcDbSpline
70
0
71
2
72
6
73
3
74
0
42
0.000000001
43
0.0000000001
44
0.0000000001
40
0
40
0
40
0
40
1
40
1
40
1
10
123.97264903811789
20
109.20333244898048
30
0
10
121.53662151126242
20
110.26694872476783
30
0
10
120.46728557376242
20
111.62792065241065
30
0
0
SPLINE
5
249
100
AcDbEntity
8
0
100
AcDbSpline
70
0
71
2
72
6
73
3
74
0
42
0.000000001
43
0.0000000001
44
0.0000000001
40
0
40
0
40
0
40
1
40
1
40
1
10
120.46728557376242
20
111.62792065241065
30
0
10
119.39794963626242
20
112.98889258005347
30
0
10
119.39794963626242
20
115.02463200189796
30
0
0
SPLINE
5
250
100
AcDbEntity
8
0
100
AcDbSpline
70
0
71
2
72
6
73
3
74
0
42
0.000000001
43
0.0000000001
44
0.0000000001
40
0
40
0
40
0
40
1
40
1
40
1
10
119.39794963626242
20
115.02463200189796
30
0
10
119.39794963626242
20
117.55215385057654
30
0
10
121.13061374453879
20
119.29053762056556
30
0
0
SPLINE
5
251
100
AcDbEntity
8
0
100
AcDbSpline
70
0
71
2
72
6
73
3
74
0
42
0.000000001
43
0.0000000001
44
0.0000000001
40
0
40
0
40
0
40
1
40
1
40
1
10
121.13061374453879
20
119.29053762056556
30
0
10
122.86327785281516
20
121.02892258264747
30
0
10
125.37936633853293
20
121.02892258264747
30
0
0
SPLINE
5
252
100
AcDbEntity
8
0
100
AcDbSpline
70
0
71
2
72
6
73
3
74
0
42
0.000000001
43
0.0000000001
44
0.0000000001
40
0
40
0
40
0
40
1
40
1
40
1
10
125.37936633853293
20
121.02892258264747
30
0
10
127.75821155337668
20
121.02892258264747
30
0
10
129.53662341861107
20
119.28481915094581
30
0
0
SPLINE
5
253
100
AcDbEntity
8
0
100
AcDbSpline
70
0
71
2
72
6
73
3
74
0
42
0.000000001
43
0.0000000001
44
0.0000000001
40
0
40
0
40
0
40
1
40
1
40
1
10
129.53662341861107
20
119.28481915094581
30
0
10
131.31503528384545
20
117.54071691133704
30
0
10
131.31503528384545
20
115.20762183763709
30
0
0
SPLINE
5
254
100
AcDbEntity
8
0
100
AcDbSpline
70
0
71
2
72
6
73
3
74
0
42
0.000000001
43
0.0000000001
44
0.0000000001
40
0
40
0
40
0
40
1
40
1
40
1
10
131.31503528384545
20
115.20762183763709
30
0
10
131.31503528384545
20
114.12113049127784
30
0
10
130.48015064029076
20
111.8223450432035
30
0
0
LINE
5
255
100
AcDbEntity
8
0
100
AcDbLine
10
130.48015064029076
20
111.8223450432035
30
0
11
127.86114162234641
21
104.57145073511329
31
0
0
ENDSEC
0
SECTION
2
OBJECTS
0
DICTIONARY
5
C
100
AcDbDictionary
3
ACAD_GROUP
350
D
3
ACAD_MLINESTYLE
350
17
0
DICTIONARY
5
D
100
AcDbDictionary
0
DICTIONARY
5
1A
330
C
100
AcDbDictionary
0
DICTIONARY
5
17
100
AcDbDictionary
0
ENDSEC
0
EOF
